<svg xmlns="http://www.w3.org/2000/svg" width="414.583" height="293.275"><defs><linearGradient id="a" x1=".5" x2=".5" y2="1" gradientUnits="objectBoundingBox"><stop offset="0" stop-color="#e8e9ff"/><stop offset="1" stop-color="#fbfbff"/></linearGradient><linearGradient id="b" y1=".5" x2="1" y2=".5" gradientUnits="objectBoundingBox"><stop offset="0" stop-color="#dae3fe"/><stop offset="1" stop-color="#e9effd"/></linearGradient><linearGradient id="e" x1=".5" x2=".5" y2="1" gradientUnits="objectBoundingBox"><stop offset="0" stop-color="#e2e4ff"/><stop offset="1" stop-color="#fff"/></linearGradient><style>.bj,.c{fill:#fff}.c{opacity:.43}.e{opacity:.3}.f{fill:#c4c6ff}.h{fill:url(#b)}.j{fill:#0b397d}.k{fill:#114085}.m{fill:#17468e}.o{fill:#dabea0}.p{fill:#f3dcc3}.q{fill:#f9eae1}.r{fill:#90cde2}.s{fill:#bf2353}.t{fill:#ff2d6e}.u{fill:#fff896}.v{fill:#77d0f0}.w{fill:#176aa0}.x{fill:#02d8fa}.y{fill:#ff8d1f}.z{fill:#a5e3e0}.aa{fill:#8ed6d1}.ab{fill:#99c200}.ac{fill:#00b7e8}.ad{fill:#009dc7}.ae{fill:#ffbc00}.af{fill:#ff9700}.ag{fill:#fcd67d}.ah{fill:#7c5e5e}.ai{fill:#6d8257}.aj{fill:#1a5370}.al{fill:#eda635}.an{fill:#a5bf78}.ao{fill:#a364b2}.ap{fill:#1ddbbb}.aq{fill:#cedc49}.ar{fill:#019a86}.as{fill:#80478e}.at{fill:#643270}.ax{fill:#73cde7}.ay{fill:#f94e26}.az{fill:#fac565}.ba{fill:#80b65e}.bb{fill:#fc4964}.bc{fill:#e42f63}.bd{fill:#bd2453}.be{fill:#018790}.bf{fill:#5f9700}.bg{fill:#367a00}.bh{fill:#c2a280}.bk{fill:#cbac8b}.bl{fill:#aec3ff}.bo{fill:#f1a34f}.br{fill:#f9ddbf}.bu{fill:#163560}.bv{fill:#2b478b}.bw{fill:#ffb27d}.bx{fill:#2a4e96}.ca{fill:#bea285}.cf{fill:#c15e1b}.ci{fill:#2c3a64}.cj{fill:#6877dd}.cl{opacity:.6}.cm{fill:#f3aa6d}</style></defs><path d="M260 476.268s-49.792-45.047-15.134-104.868 81.207-29.737 78.954-99.362 96.2-76.378 130.994-56.189 65.512 8.623 107.069 10.031c67.4 2.284 86.265 72.514 67.579 106.692-26.513 48.493 56.553 48.4-6.519 143.694z" transform="translate(-232.599 -183.711)" fill="url(#a)"/><path d="M373.668 47.319a1.68 1.68 0 00-3.256.151c-3.27 16.565-13.2 59.734-31.84 83.694-30.341 39.013-47.783 99.856-24.1 128.791.001.001 113.779-30.338 59.196-212.636z" fill="#abcdff"/><path class="c" d="M372.292 70.697c0 .533-.041.973-.065 1.448l-.1 1.4-.234 2.792a358.74 358.74 0 01-.564 5.573q-.613 5.567-1.351 11.12c-.99 7.4-2.181 14.777-3.483 22.132s-2.788 14.679-4.44 21.966-3.419 14.55-5.419 21.752a358.786 358.786 0 01-14.471 42.433c-2.944 6.876-6.068 13.678-9.581 20.285a194.124 194.124 0 01-11.691 19.132.295.295 0 01-.489-.328 216.933 216.933 0 0011.1-19.362c3.387-6.626 6.385-13.443 9.2-20.327s5.348-13.888 7.724-20.94 4.453-14.2 6.493-21.364c4.018-14.34 7.27-28.889 10.119-43.513q2.113-10.974 3.8-22.026.857-5.523 1.6-11.063l.694-5.546.319-2.775.144-1.388c.04-.455.09-.944.108-1.344v-.066a.292.292 0 01.583.013z"/><path d="M314.606 14.935a1.607 1.607 0 00-2.944 1.027c1.52 16.083 4.185 58.382-6.366 85.438-17.181 44.054-16.579 104.609 13.034 124.682-.001.001 96.062-58.861-3.724-211.147z" fill="#c9dfff"/><path class="c" d="M319.726 36.748c.146.49.229.9.336 1.346l.289 1.311.547 2.624c.353 1.752.679 3.508 1 5.265q.959 5.273 1.8 10.566c1.113 7.059 2.033 14.147 2.847 21.247s1.449 14.222 1.923 21.356.834 14.276.966 21.427a343.064 343.064 0 01-1.7 42.863c-.825 7.109-1.836 14.2-3.255 21.216a185.562 185.562 0 01-5.508 20.734.287.287 0 01-.547-.171 207.982 207.982 0 004.888-20.784c1.3-7 2.185-14.068 2.889-21.15s1.115-14.195 1.369-21.31.208-14.241.126-21.362c-.226-14.246-1.213-28.475-2.588-42.663q-1.054-10.64-2.52-21.237-.72-5.3-1.548-10.582l-.875-5.275-.464-2.632-.246-1.312c-.087-.428-.175-.891-.267-1.261l-.015-.062a.284.284 0 01.548-.15z"/><g class="e"><path class="f" d="M107.327 65.772a1.16 1.16 0 011.3.842c.343 1.265.635 2.564.87 3.86a1.16 1.16 0 01-.935 1.349h-.022a1.16 1.16 0 01-1.326-.939 43.613 43.613 0 00-.827-3.667 1.16 1.16 0 01.817-1.423 1.1 1.1 0 01.123-.022zm1.537 9.991a1.21 1.21 0 01.137-.014 1.161 1.161 0 011.209 1.11 47.397 47.397 0 010 3.954 1.16 1.16 0 11-2.318-.1 44.43 44.43 0 000-3.758 1.161 1.161 0 01.973-1.192zm-.7 10.081a1.162 1.162 0 011.326 1.356 46.284 46.284 0 01-.883 3.857 1.16 1.16 0 01-2.238-.615c.331-1.2.613-2.435.839-3.662a1.161 1.161 0 01.956-.936zm-2.938 9.674a1.161 1.161 0 011.249 1.606 45.985 45.985 0 01-1.723 3.563 1.16 1.16 0 01-2.044-1.1 43.922 43.922 0 001.636-3.385 1.16 1.16 0 01.882-.684zm-5.021 8.775a1.16 1.16 0 011.121 1.831c-.774 1.058-1.6 2.1-2.468 3.091a1.16 1.16 0 11-1.751-1.523 44.583 44.583 0 002.346-2.938 1.157 1.157 0 01.751-.461zm-6.837 7.445a1.16 1.16 0 01.948 2.02 47.068 47.068 0 01-3.091 2.469 1.16 1.16 0 01-1.37-1.873c1.008-.737 2-1.526 2.937-2.346a1.154 1.154 0 01.575-.269zm-41.536 9.5a1.159 1.159 0 01.49.027c1.2.328 2.436.608 3.665.832a1.16 1.16 0 01-.416 2.283 46.353 46.353 0 01-3.86-.876 1.161 1.161 0 01.121-2.266zm33.225-3.763a1.161 1.161 0 01.733 2.168 45.747 45.747 0 01-3.563 1.718 1.16 1.16 0 11-.917-2.132 43.64 43.64 0 003.383-1.631 1.161 1.161 0 01.362-.118zm-23.237 5.31a1.169 1.169 0 01.233-.014 44.48 44.48 0 003.76-.007 1.161 1.161 0 01.1 2.319 46.623 46.623 0 01-3.957.007 1.16 1.16 0 01-.139-2.3zm13.849-1.568a1.161 1.161 0 01.489 2.266 46.472 46.472 0 01-3.857.877h-.025a1.16 1.16 0 01-.388-2.275 44.34 44.34 0 003.664-.834.503.503 0 01.117-.03z"/><path d="M44.197 118.396a1.156 1.156 0 01.686.1c.539.259 1.093.511 1.646.75a1.16 1.16 0 11-.918 2.131 45.153 45.153 0 01-1.732-.788 1.161 1.161 0 01.318-2.192z" fill="#bdd0fb"/></g><g class="e"><path class="f" d="M20.815 91.846a1.161 1.161 0 011.286.782c.187.568.39 1.142.6 1.7a1.16 1.16 0 11-2.172.818 45.22 45.22 0 01-.634-1.8 1.161 1.161 0 01.918-1.509zM56.471 33.035q.791-.128 1.591-.229a1.16 1.16 0 01.293 2.3 45.122 45.122 0 00-3.648.616 1.161 1.161 0 01-.482-2.271 54.274 54.274 0 012.246-.416zm7.707-.584a1.135 1.135 0 01.2-.015c1.294.012 2.6.079 3.889.2a1.16 1.16 0 11-.216 2.31 44.589 44.589 0 00-3.695-.189 1.16 1.16 0 01-.175-2.305zm-15.824 2.682a1.16 1.16 0 01.577 2.237c-1.153.416-2.3.887-3.422 1.4a1.16 1.16 0 11-.969-2.109 46.648 46.648 0 013.6-1.475 1.185 1.185 0 01.214-.053zm25.7-1.5a1.162 1.162 0 01.45.016c1.259.3 2.521.649 3.75 1.05a1.16 1.16 0 11-.719 2.206 45.5 45.5 0 00-3.561-1 1.161 1.161 0 01.081-2.276zm-34.625 5.883a1.161 1.161 0 01.81 2.124 44.327 44.327 0 00-3.03 2.118 1.16 1.16 0 11-1.408-1.844 45.78 45.78 0 013.19-2.23 1.156 1.156 0 01.442-.163zm-7.742 6.239a1.16 1.16 0 011.009 1.963 46.443 46.443 0 00-2.5 2.729 1.16 1.16 0 11-1.776-1.493 46.913 46.913 0 012.627-2.872 1.153 1.153 0 01.643-.322zm-6.2 7.779a1.16 1.16 0 011.166 1.765 44.17 44.17 0 00-1.842 3.208 1.16 1.16 0 01-2.059-1.071 48.687 48.687 0 011.939-3.376 1.158 1.158 0 01.801-.521zm-4.354 8.945a1.161 1.161 0 011.277 1.536 43.819 43.819 0 00-1.094 3.533 1.16 1.16 0 11-2.244-.592c.33-1.25.717-2.5 1.152-3.72a1.16 1.16 0 01.915-.753zm-2.285 9.686a1.162 1.162 0 011.337 1.285 44.025 44.025 0 00-.288 3.686 1.16 1.16 0 11-2.319-.084c.046-1.293.149-2.6.3-3.88a1.161 1.161 0 01.976-1.002zm-.1 9.945l.071-.009a1.16 1.16 0 011.269 1.04c.09.9.208 1.808.352 2.7q.078.484.167.964a1.16 1.16 0 01-.932 1.351 1.147 1.147 0 01-1.351-.931q-.093-.505-.175-1.014a47.303 47.303 0 01-.37-2.84 1.16 1.16 0 01.974-1.257zM83.456 36.983a1.155 1.155 0 01.691.1c.565.275 1.135.567 1.694.867a1.16 1.16 0 11-1.1 2.044 43.599 43.599 0 00-1.609-.824 1.16 1.16 0 01.323-2.189z"/></g><path class="f" d="M84.056 50.519a.542.542 0 00-.626-.067l-5.753 3.236a28.753 28.753 0 00-8.8-3.053l-2.515-6.1a.542.542 0 00-.533-.335l-7.9.468a.543.543 0 00-.49.4l-1.778 6.352a28.752 28.752 0 00-8.38 4.07l-6.094-2.535a.543.543 0 00-.614.14l-5.258 5.92a.542.542 0 00-.067.626l3.236 5.753a28.754 28.754 0 00-3.053 8.8l-6.1 2.515a.542.542 0 00-.335.533l.468 7.9a.542.542 0 00.4.49l6.352 1.778a28.745 28.745 0 004.07 8.38l-2.535 6.094a.543.543 0 00.141.614l5.919 5.258a.542.542 0 00.626.067l5.753-3.236a28.754 28.754 0 008.8 3.053l2.515 6.1a.542.542 0 00.533.334l7.9-.468a.542.542 0 00.49-.4l1.778-6.352a28.745 28.745 0 008.379-4.07l6.094 2.535a.542.542 0 00.614-.14l5.258-5.92a.543.543 0 00.067-.626l-3.236-5.752a28.753 28.753 0 003.053-8.8l6.1-2.515a.542.542 0 00.335-.533l-.468-7.9a.543.543 0 00-.4-.49l-6.352-1.778a28.754 28.754 0 00-4.07-8.38l2.535-6.094a.542.542 0 00-.14-.614z"/><path class="h" d="M62.666 71.281a7.962 7.962 0 11-1.137.27 7.971 7.971 0 011.137-.27zm2.223 13.885a6.222 6.222 0 00.881-.209 6.083 6.083 0 10-.881.209z"/><path class="h" d="M60.674 59.959a20.014 20.014 0 012-.22q.318-.019.637-.028a19.686 19.686 0 013.13.165l.042.006.12.017.233.035a.465.465 0 01.388.384.471.471 0 010 .146.465.465 0 01-.53.388 18.661 18.661 0 00-19.157 9.378 18.526 18.526 0 00-2.315 10.147 18.909 18.909 0 00.21 1.907 18.642 18.642 0 0037.006-4.11 18.646 18.646 0 00-3.2-9.4.459.459 0 01-.075-.188.464.464 0 01.842-.335 19.571 19.571 0 11-35.487 14.181 19.969 19.969 0 01-.22-2 19.573 19.573 0 0116.38-20.471z"/><g class="e"><path class="f" d="M141.545 29.272a.716.716 0 01.76.4c.262.549.512 1.114.741 1.678a.717.717 0 11-1.328.539 29.98 29.98 0 00-.706-1.6.716.716 0 01.533-1.016zM143.455 34.444a.716.716 0 01.805.522 31.032 31.032 0 01.66 3.083c.035.218.068.436.1.656a.742.742 0 01-.611.81.717.717 0 01-.809-.61q-.044-.315-.094-.627a29.8 29.8 0 00-.629-2.94.717.717 0 01.507-.878.562.562 0 01.071-.016zm1.03 7.37a.775.775 0 01.1-.009.717.717 0 01.729.7 31.05 31.05 0 01-.169 3.811.717.717 0 11-1.425-.151 29.655 29.655 0 00.161-3.635.717.717 0 01.604-.716zm-.787 7.4a.717.717 0 01.812.872 30.906 30.906 0 01-1.1 3.655.717.717 0 01-1.344-.5 29.432 29.432 0 001.049-3.485.718.718 0 01.583-.543zm-2.583 6.98a.716.716 0 01.75 1.037 31 31 0 01-1.961 3.273.717.717 0 01-1.182-.811 29.56 29.56 0 001.87-3.122.716.716 0 01.523-.379zm-4.209 6.137a.717.717 0 01.651 1.182 31.328 31.328 0 01-2.7 2.7.717.717 0 11-.95-1.073 29.858 29.858 0 002.572-2.574.715.715 0 01.427-.236zm-5.57 4.929a.717.717 0 01.52 1.3 30.821 30.821 0 01-3.272 1.958.717.717 0 01-.659-1.273 29.389 29.389 0 003.12-1.867.707.707 0 01.294-.119zm-6.6 3.416a.717.717 0 01.361 1.38 31.006 31.006 0 01-3.654 1.1.719.719 0 01-.327-1.4 29.5 29.5 0 003.485-1.045.717.717 0 01.13-.036zm-10.97 1.863a.7.7 0 01.126-.009 29.641 29.641 0 003.163-.121c.16-.014.316-.029.473-.046a.717.717 0 01.79.635.709.709 0 01-.635.79c-.167.018-.333.035-.5.049a31.12 31.12 0 01-3.312.126.717.717 0 01-.1-1.424z"/></g><g class="e"><path class="f" d="M109.017 12.524a.717.717 0 01.237 1.414 29.643 29.643 0 00-3.481.828.717.717 0 11-.416-1.372 31.17 31.17 0 013.65-.868zm3.643-.413a.7.7 0 01.077-.008 31.343 31.343 0 013.753.026.717.717 0 01-.1 1.431 29.96 29.96 0 00-3.581-.025.717.717 0 01-.153-1.423zm-10.646 2.536a.717.717 0 01.4 1.363 29.718 29.718 0 00-3.179 1.646.717.717 0 01-.735-1.231 31.09 31.09 0 013.333-1.725.715.715 0 01.181-.052zm17.951-2.041a.721.721 0 01.249 0 30.739 30.739 0 013.637.932.717.717 0 11-.44 1.364 29.414 29.414 0 00-3.468-.888.717.717 0 01.021-1.411zM95.732 18.4a.717.717 0 01.555 1.274 29.5 29.5 0 00-2.689 2.361.717.717 0 01-1.01-1.018 31.238 31.238 0 012.82-2.476.717.717 0 01.324-.141zm-5.2 5.15a.717.717 0 01.677 1.152 29.99 29.99 0 00-2.048 2.937.717.717 0 01-1.223-.747 31.3 31.3 0 012.146-3.079.713.713 0 01.45-.265zm-3.815 6.248a.709.709 0 01.411.056.716.716 0 01.355.949 29.339 29.339 0 00-1.283 3.342.717.717 0 01-1.367-.432 30.937 30.937 0 011.345-3.505.716.716 0 01.541-.41zM126.965 14.865a.715.715 0 01.416.058c.556.258 1.108.534 1.638.82a.717.717 0 11-.68 1.263 29.581 29.581 0 00-1.563-.783.717.717 0 01.188-1.358z"/></g><path class="f" d="M127.853 24.1a.363.363 0 00-.419-.045l-3.849 2.166a19.243 19.243 0 00-5.89-2.043l-1.683-4.081a.363.363 0 00-.357-.224l-5.289.313a.363.363 0 00-.328.265l-1.19 4.251a19.232 19.232 0 00-5.607 2.724l-4.078-1.7a.363.363 0 00-.411.094l-3.518 3.961a.363.363 0 00-.045.419l2.166 3.85a19.246 19.246 0 00-2.043 5.889l-4.081 1.683a.364.364 0 00-.224.357l.313 5.289a.362.362 0 00.264.328l4.25 1.19a19.237 19.237 0 002.724 5.607l-1.7 4.078a.363.363 0 00.094.411l3.961 3.518a.363.363 0 00.419.045l3.849-2.166a19.238 19.238 0 005.889 2.043l1.683 4.081a.362.362 0 00.357.224l5.289-.313a.362.362 0 00.328-.264l1.19-4.251a19.242 19.242 0 005.607-2.723l4.078 1.7a.362.362 0 00.411-.094l3.518-3.961a.363.363 0 00.045-.419l-2.166-3.849a19.24 19.24 0 002.043-5.889l4.08-1.683a.363.363 0 00.224-.357l-.313-5.289a.363.363 0 00-.264-.328l-4.251-1.19a19.23 19.23 0 00-2.724-5.607l1.7-4.078a.363.363 0 00-.094-.411z"/><path d="M113.531 37.897a5.433 5.433 0 11-.782.186 5.531 5.531 0 01.782-.186zm1.486 9.292a3.988 3.988 0 003.169-5.14 3.988 3.988 0 00-5-2.6 3.988 3.988 0 001.836 7.739z" opacity=".56" fill="#bdd0fb"/><path class="h" d="M112.155 30.014q.671-.108 1.364-.15a13.575 13.575 0 012.749.116l.122.019a.717.717 0 01.6.593.729.729 0 010 .225.718.718 0 01-.818.6 12.1 12.1 0 00-2.567-.12l-.141.009a11.95 11.95 0 00-5.615 1.843 12.131 12.131 0 00-2.48 2.1l-.018.02-.055.061a11.988 11.988 0 00-3.024 8.727 12.173 12.173 0 00.135 1.234 12.068 12.068 0 1021.884-8.745.7.7 0 01-.116-.29.717.717 0 011.3-.518 13.5 13.5 0 11-24.483 9.784 13.858 13.858 0 01-.152-1.381 13.521 13.521 0 0111.315-14.127z"/><g transform="translate(41.629 70.705)"><path class="j" d="M103.021 213.823c-.51.1-.738.7-1.023 1.695l-1.348 5.052c0 .568.345 1.094.549 1.094 0 0 105.039.188 106.407.188.313-.142.285-.256.142-.855-.691-2.468-1.561-5.479-1.561-5.479-.462-1.419-.633-1.334-1.023-1.695a1.478 1.478 0 00-.913-.361s-100.257.18-101.23.361z"/><path class="k" d="M117.832 181.609h73.413l6.337 34.721h-86.408z"/><path d="M197.546 216.153l-1.553-5.382z" fill="#1a4a92"/><rect class="m" width="308.807" height="183.832" rx="12"/><rect width="300.332" height="174.448" rx="6" transform="translate(4.318 4.665)" fill="url(#e)"/></g><g><path class="o" d="M293.999 248.816H131.426v-140.27h162.573z"/><path class="p" d="M291.093 232.65h-81.197V111.857h81.197z"/><path class="o" d="M293.999 236.116h-81.167v-3.311h81.167zM293.999 210.82h-81.167v-3.311h81.167zM293.999 183.383h-81.167v-3.318h81.167zM293.879 157.04h-81.167v-3.371h81.167zM293.999 130.818h-81.167v-3.278h81.167z"/><path class="q" d="M291.093 248.82h-82.377v-12.483h82.377z"/><path class="r" d="M254.109 127.645h-10.862v-6.804h10.862zM242.271 127.645h-10.862v-6.804h10.862zM230.432 127.645H219.57v-6.804h10.862zM219.57 113.799h10.862v6.804H219.57zM231.409 113.799h10.862v6.804h-10.862zM243.247 113.799h10.862v6.804h-10.862z"/><path class="s" d="M285.548 216.983h-1.747v-.329h1.747zM285.548 216.578h-1.747v-.274h1.747z"/><path class="t" d="M284.674 219.637a2.856 2.856 0 012.857 2.856v9.662a.523.523 0 01-.524.524h-.986a.4.4 0 10-.791 0h-1.113a.4.4 0 10-.791 0h-.986a.523.523 0 01-.523-.524v-9.662a2.856 2.856 0 012.857-2.856z"/><path class="t" d="M283.274 220.892h2.8l-.527-3.79h-1.745z"/><path class="t" d="M285.495 217.122h-1.643a.1.1 0 01-.1-.1.1.1 0 01.1-.1h1.643a.1.1 0 01.1.1.1.1 0 01-.1.1zM285.495 216.328h-1.643a.1.1 0 01-.1-.1.1.1 0 01.1-.1h1.643a.1.1 0 01.1.1.1.1 0 01-.1.1z"/><path class="u" d="M285.495 216.688h-1.643a.1.1 0 01-.1-.1.1.1 0 01.1-.1h1.643a.1.1 0 01.1.1.1.1 0 01-.1.1z"/><path class="s" d="M278.911 216.983h-1.747v-.329h1.747zM278.911 216.578h-1.747v-.274h1.747z"/><path class="t" d="M278.038 219.637a2.856 2.856 0 012.857 2.856v9.662a.524.524 0 01-.524.524h-.986a.4.4 0 00-.791 0h-1.113a.4.4 0 10-.791 0h-.986a.523.523 0 01-.523-.524v-9.662a2.856 2.856 0 012.857-2.856z"/><path class="t" d="M276.638 220.892h2.8l-.527-3.79h-1.746z"/><path class="t" d="M278.858 217.122h-1.643a.1.1 0 01-.1-.1.1.1 0 01.1-.1h1.643a.1.1 0 01.1.1.1.1 0 01-.1.1zM278.858 216.328h-1.643a.1.1 0 01-.1-.1.1.1 0 01.1-.1h1.643a.1.1 0 01.1.1.1.1 0 01-.1.1z"/><path class="u" d="M278.858 216.688h-1.643a.1.1 0 01-.1-.1.1.1 0 01.1-.1h1.643a.1.1 0 01.1.1.1.1 0 01-.1.1z"/><path class="s" d="M272.267 216.983h-1.747v-.329h1.747zM272.267 216.578h-1.747v-.274h1.747z"/><path class="t" d="M271.393 219.637a2.856 2.856 0 012.857 2.856v9.662a.523.523 0 01-.524.524h-.985a.4.4 0 10-.791 0h-1.114a.4.4 0 10-.791 0h-.986a.523.523 0 01-.523-.524v-9.662a2.856 2.856 0 012.857-2.856z"/><path class="t" d="M269.993 220.892h2.8l-.527-3.79h-1.746z"/><path class="t" d="M272.214 217.122h-1.643a.1.1 0 01-.1-.1.1.1 0 01.1-.1h1.643a.1.1 0 01.1.1.1.1 0 01-.1.1zM272.214 216.328h-1.643a.1.1 0 01-.1-.1.1.1 0 01.1-.1h1.643a.1.1 0 01.1.1.1.1 0 01-.1.1z"/><path class="u" d="M272.214 216.688h-1.643a.1.1 0 01-.1-.1.1.1 0 01.1-.1h1.643a.1.1 0 01.1.1.1.1 0 01-.1.1z"/><path class="s" d="M265.622 216.983h-1.747v-.329h1.747zM265.622 216.578h-1.747v-.274h1.747z"/><path class="t" d="M264.749 219.637a2.856 2.856 0 012.857 2.856v9.662a.523.523 0 01-.524.524h-.986a.4.4 0 10-.791 0h-1.113a.4.4 0 10-.791 0h-.986a.523.523 0 01-.524-.524v-9.662a2.856 2.856 0 012.858-2.856z"/><path class="t" d="M263.349 220.892h2.8l-.527-3.79h-1.746z"/><path class="t" d="M265.569 217.122h-1.643a.1.1 0 01-.1-.1.1.1 0 01.1-.1h1.643a.1.1 0 01.1.1.1.1 0 01-.1.1zM265.569 216.328h-1.643a.1.1 0 01-.1-.1.1.1 0 01.1-.1h1.643a.1.1 0 01.1.1.1.1 0 01-.1.1z"/><path class="u" d="M265.569 216.688h-1.643a.1.1 0 01-.1-.1.1.1 0 01.1-.1h1.643a.1.1 0 01.1.1.1.1 0 01-.1.1z"/><g><path class="s" d="M258.978 216.983h-1.747v-.329h1.747zM258.978 216.578h-1.747v-.274h1.747z"/><path class="t" d="M258.1 219.637a2.856 2.856 0 012.857 2.856v9.662a.524.524 0 01-.524.524h-.986a.4.4 0 10-.791 0h-1.113a.4.4 0 10-.791 0h-.985a.523.523 0 01-.524-.524v-9.662a2.857 2.857 0 012.857-2.856z"/><path class="t" d="M256.705 220.892h2.8l-.527-3.79h-1.746z"/><path class="t" d="M258.925 217.122h-1.643a.1.1 0 01-.1-.1.1.1 0 01.1-.1h1.643a.1.1 0 01.1.1.1.1 0 01-.1.1zM258.925 216.328h-1.643a.1.1 0 01-.1-.1.1.1 0 01.1-.1h1.643a.1.1 0 01.1.1.1.1 0 01-.1.1z"/><path class="u" d="M258.925 216.688h-1.643a.1.1 0 01-.1-.1.1.1 0 01.1-.1h1.643a.1.1 0 01.1.1.1.1 0 01-.1.1z"/></g><g><path class="v" d="M288.175 127.57h-10.051v-6.296h10.051z"/><path class="v" d="M278.124 115.014h10.051v6.296h-10.051z"/></g><g><path class="v" d="M277.591 127.57H267.54v-6.296h10.051z"/><path class="v" d="M267.54 115.014h10.051v6.296H267.54z"/></g><g><path class="v" d="M267.008 127.57h-10.051v-6.296h10.051z"/><path class="v" d="M256.957 115.014h10.051v6.296h-10.051z"/></g><g transform="translate(243.399 184.906)"><path class="w" d="M4.998 1.419h-2.34V.978h2.34zM4.998.876h-2.34V.508h2.34z"/><path class="x" d="M3.827 4.974a3.827 3.827 0 013.828 3.827v12.946a.7.7 0 01-.7.7H5.634a.53.53 0 10-1.059 0H3.083a.53.53 0 10-1.06 0H.703a.7.7 0 01-.7-.7V8.801a3.828 3.828 0 013.824-3.827z"/><path class="x" d="M1.952 6.657h3.752l-.707-5.078H2.658z"/><rect class="x" width="2.466" height=".261" rx=".13" transform="rotate(-180 2.53 .802)"/><rect class="x" width="2.466" height=".261" rx=".13" transform="rotate(-180 2.53 .27)"/><rect class="x" width="2.466" height=".261" rx=".13" transform="rotate(-180 2.53 .511)"/><path class="y" d="M5.108 1.344H2.546V0h2.562z"/></g><g transform="translate(234.854 184.906)"><path class="w" d="M4.997 1.419h-2.34V.978h2.34zM4.997.876h-2.34V.508h2.34z"/><path class="x" d="M3.827 4.974a3.828 3.828 0 013.827 3.827v12.946a.7.7 0 01-.7.7h-1.32a.53.53 0 10-1.06 0H3.082a.53.53 0 10-1.06 0H.701a.7.7 0 01-.7-.7V8.801a3.827 3.827 0 013.826-3.827z"/><path class="x" d="M1.951 6.657h3.752l-.706-5.078H2.658z"/><rect class="x" width="2.466" height=".261" rx=".13" transform="rotate(-180 2.53 .802)"/><rect class="x" width="2.466" height=".261" rx=".13" transform="rotate(-180 2.53 .27)"/><rect class="x" width="2.466" height=".261" rx=".13" transform="rotate(-180 2.53 .511)"/><path class="y" d="M5.108 1.344H2.546V0h2.562z"/></g><g transform="translate(226.31 184.906)"><path class="w" d="M4.997 1.419h-2.34V.978h2.34zM4.997.876h-2.34V.508h2.34z"/><path class="x" d="M3.827 4.974a3.827 3.827 0 013.827 3.827v12.946a.7.7 0 01-.7.7h-1.32a.53.53 0 10-1.06 0H3.082a.53.53 0 10-1.06 0H.698a.7.7 0 01-.7-.7V8.801a3.827 3.827 0 013.829-3.827z"/><path class="x" d="M1.951 6.657h3.752l-.707-5.078H2.657z"/><rect class="x" width="2.466" height=".261" rx=".13" transform="rotate(-180 2.53 .802)"/><rect class="x" width="2.466" height=".261" rx=".13" transform="rotate(-180 2.53 .27)"/><rect class="x" width="2.466" height=".261" rx=".13" transform="rotate(-180 2.53 .511)"/><path class="y" d="M5.108 1.344H2.546V0h2.562z"/></g><g transform="translate(217.765 184.906)"><path class="w" d="M4.998 1.419h-2.34V.978h2.34zM4.998.876h-2.34V.508h2.34z"/><path class="x" d="M3.827 4.974a3.827 3.827 0 013.827 3.827v12.946a.7.7 0 01-.7.7H5.633a.53.53 0 10-1.059 0H3.082a.53.53 0 10-1.06 0H.702a.7.7 0 01-.7-.7V8.801a3.827 3.827 0 013.825-3.827z"/><path class="x" d="M1.952 6.657h3.752l-.706-5.078h-2.34z"/><rect class="x" width="2.466" height=".261" rx=".13" transform="rotate(-180 2.53 .802)"/><rect class="x" width="2.466" height=".261" rx=".13" transform="rotate(-180 2.53 .27)"/><rect class="x" width="2.466" height=".261" rx=".13" transform="rotate(-180 2.53 .511)"/><path class="y" d="M5.108 1.344H2.546V0h2.562z"/></g><g><path class="z" d="M219.516 137.028v-.3a.339.339 0 01.339-.34h3.681a.339.339 0 01.339.34v.3a3.356 3.356 0 00.674 2.017 3.358 3.358 0 01.674 2.017v11.917a.866.866 0 01-.866.866h-5.323a.866.866 0 01-.866-.866v-11.917a3.358 3.358 0 01.674-2.017 3.356 3.356 0 00.674-2.017z"/><path class="aa" d="M223.536 136.387h-3.675v-2.015a1.838 1.838 0 011.837-1.837 1.838 1.838 0 011.838 1.837v2.015z"/></g><g><path class="z" d="M227.957 137.028v-.3a.34.34 0 01.34-.34h3.681a.34.34 0 01.34.34v.3a3.354 3.354 0 00.674 2.017 3.356 3.356 0 01.674 2.017v11.917a.866.866 0 01-.866.866h-5.323a.866.866 0 01-.866-.866v-11.917a3.355 3.355 0 01.674-2.017 3.358 3.358 0 00.672-2.017z"/><path class="aa" d="M231.977 136.387h-3.675v-2.015a1.838 1.838 0 011.838-1.837 1.837 1.837 0 011.837 1.837v2.015z"/></g><g><path class="z" d="M236.399 137.028v-.3a.34.34 0 01.34-.34h3.681a.34.34 0 01.34.34v.3a3.358 3.358 0 00.674 2.017 3.355 3.355 0 01.674 2.017v11.917a.866.866 0 01-.867.866h-5.323a.866.866 0 01-.866-.866v-11.917a3.354 3.354 0 01.674-2.017 3.356 3.356 0 00.673-2.017z"/><path class="aa" d="M240.419 136.387h-3.675v-2.015a1.838 1.838 0 011.837-1.837 1.838 1.838 0 011.838 1.837v2.015z"/></g><g><path class="z" d="M244.84 137.028v-.3a.34.34 0 01.34-.34h3.68a.34.34 0 01.34.34v.3a3.356 3.356 0 00.674 2.017 3.357 3.357 0 01.674 2.017v11.917a.866.866 0 01-.866.866h-5.323a.866.866 0 01-.866-.866v-11.917a3.358 3.358 0 01.674-2.017 3.355 3.355 0 00.673-2.017z"/><path class="aa" d="M248.86 136.387h-3.675v-2.015a1.838 1.838 0 011.837-1.837 1.838 1.838 0 011.838 1.837v2.015z"/></g><g><path class="z" d="M253.281 137.028v-.3a.339.339 0 01.34-.34h3.681a.34.34 0 01.34.34v.3a3.355 3.355 0 00.674 2.017 3.355 3.355 0 01.674 2.017v11.917a.866.866 0 01-.866.866h-5.321a.867.867 0 01-.867-.866v-11.917a3.358 3.358 0 01.674-2.017 3.354 3.354 0 00.671-2.017z"/><path class="aa" d="M257.301 136.387h-3.675v-2.015a1.838 1.838 0 011.837-1.837 1.838 1.838 0 011.838 1.837v2.015z"/></g><g><path class="ab" d="M258.605 190.606v-.3a.34.34 0 01.34-.34h3.681a.34.34 0 01.34.34v.3a3.355 3.355 0 00.674 2.017 3.353 3.353 0 01.674 2.017v11.917a.866.866 0 01-.866.866h-5.323a.866.866 0 01-.866-.866V194.64a3.355 3.355 0 01.674-2.017 3.358 3.358 0 00.672-2.017z"/><path class="ac" d="M262.625 189.965h-3.675v-2.015a1.838 1.838 0 011.837-1.837 1.838 1.838 0 011.838 1.837v2.015z"/><path class="ad" d="M262.625 189.966h-.192v-.766h.192zM259.142 189.966h-.192v-.766h.192zM259.529 189.966h-.192v-.766h.192zM259.916 189.966h-.192v-.766h.192zM260.303 189.966h-.192v-.766h.192zM260.69 189.966h-.192v-.766h.192zM261.077 189.966h-.192v-.766h.192zM261.464 189.966h-.192v-.766h.192zM261.851 189.966h-.192v-.766h.192zM262.238 189.966h-.192v-.766h.192z"/><g><path class="ab" d="M267.046 190.606v-.3a.34.34 0 01.34-.34h3.681a.34.34 0 01.34.34v.3a3.357 3.357 0 00.674 2.017 3.355 3.355 0 01.674 2.017v11.917a.867.867 0 01-.866.866h-5.323a.866.866 0 01-.866-.866V194.64a3.353 3.353 0 01.674-2.017 3.355 3.355 0 00.672-2.017z"/><path class="ac" d="M271.066 189.965h-3.675v-2.015a1.838 1.838 0 011.837-1.837 1.838 1.838 0 011.838 1.837v2.015z"/><path class="ad" d="M271.066 189.966h-.192v-.766h.192zM267.583 189.966h-.192v-.766h.192zM267.97 189.966h-.192v-.766h.192zM268.357 189.966h-.192v-.766h.192zM268.744 189.966h-.192v-.766h.192zM269.131 189.966h-.192v-.766h.192zM269.518 189.966h-.192v-.766h.192zM269.905 189.966h-.192v-.766h.192zM270.292 189.966h-.192v-.766h.192zM270.679 189.966h-.192v-.766h.192z"/></g><g><path class="ab" d="M275.487 190.606v-.3a.34.34 0 01.34-.34h3.681a.34.34 0 01.339.34v.3a3.355 3.355 0 00.674 2.017 3.358 3.358 0 01.674 2.017v11.917a.866.866 0 01-.866.866h-5.323a.866.866 0 01-.866-.866V194.64a3.357 3.357 0 01.674-2.017 3.356 3.356 0 00.673-2.017z"/><path class="ac" d="M279.507 189.965h-3.675v-2.015a1.838 1.838 0 011.838-1.837 1.837 1.837 0 011.837 1.837v2.015z"/><path class="ad" d="M279.507 189.966h-.192v-.766h.192zM276.024 189.966h-.192v-.766h.192zM276.411 189.966h-.192v-.766h.192zM276.798 189.966h-.192v-.766h.192zM277.185 189.966h-.192v-.766h.192zM277.572 189.966h-.192v-.766h.192zM277.959 189.966h-.192v-.766h.192zM278.346 189.966h-.192v-.766h.192zM278.733 189.966h-.192v-.766h.192zM279.12 189.966h-.192v-.766h.192z"/></g><g><path class="ab" d="M283.928 190.606v-.3a.34.34 0 01.34-.34h3.68a.34.34 0 01.34.34v.3a3.354 3.354 0 00.674 2.017 3.354 3.354 0 01.674 2.017v11.917a.866.866 0 01-.866.866h-5.323a.866.866 0 01-.866-.866V194.64a3.355 3.355 0 01.674-2.017 3.358 3.358 0 00.673-2.017z"/><path class="ac" d="M287.948 189.965h-3.675v-2.015a1.838 1.838 0 011.838-1.837 1.837 1.837 0 011.837 1.837v2.015z"/><path class="ad" d="M287.948 189.966h-.192v-.766h.192zM284.465 189.966h-.192v-.766h.192zM284.852 189.966h-.192v-.766h.192zM285.239 189.966h-.192v-.766h.192zM285.626 189.966h-.192v-.766h.192zM286.013 189.966h-.192v-.766h.192zM286.4 189.966h-.192v-.766h.192zM286.787 189.966h-.192v-.766h.192zM287.174 189.966h-.192v-.766h.192zM287.561 189.966h-.192v-.766h.192z"/></g></g><g><path class="ae" d="M282.984 167.752h3.875l-.816-8.932H283.8z"/><path class="af" d="M286.071 158.746h-2.304v-.272h2.304z"/><path class="ae" d="M287.894 180.137h-5.951a.612.612 0 01-.612-.612v-11.531a3.588 3.588 0 013.588-3.588 3.588 3.588 0 013.587 3.588v11.531a.612.612 0 01-.612.612z"/><path class="ae" d="M287.894 180.137h-5.951a.612.612 0 01-.612-.612v-11.531a3.588 3.588 0 013.588-3.588 3.588 3.588 0 013.587 3.588v11.531a.612.612 0 01-.612.612z"/><path class="ae" d="M281.332 167.994v11.532a.611.611 0 00.612.612h5.95a.611.611 0 00.612-.612v-11.532a3.593 3.593 0 00-2.028-3.233 3.527 3.527 0 00-1.412-.351h-.147a3.586 3.586 0 00-3.588 3.588zM283.766 159.025h2.3a.161.161 0 00.161-.16.161.161 0 00-.161-.16h-2.3a.161.161 0 00-.16.16.16.16 0 00.16.16zM283.766 158.517h2.3a.161.161 0 00.161-.16.161.161 0 00-.161-.16h-2.3a.161.161 0 00-.16.16.16.16 0 00.16.16z"/><path class="af" d="M283.766 158.445h2.3a.158.158 0 00.153-.124.144.144 0 01.008.036.161.161 0 01-.161.16h-2.3a.16.16 0 01-.16-.16.156.156 0 01.007-.036.158.158 0 00.153.124zM283.766 158.953h2.3a.158.158 0 00.153-.125.152.152 0 01.008.036.161.161 0 01-.161.16h-2.3a.16.16 0 01-.16-.16.165.165 0 01.007-.036.158.158 0 00.153.125zM287.894 179.676h-5.951a5.265 5.265 0 015.951 0z"/><path class="ag" d="M285.296 158.356h.787a.054.054 0 00.055-.055.054.054 0 00-.055-.054h-.787a.055.055 0 00-.055.054.054.054 0 00.055.055zM285.033 158.875h1.05a.054.054 0 00.054-.054.054.054 0 00-.054-.055h-1.05a.055.055 0 00-.054.055.055.055 0 00.054.054z"/></g><g><path class="ae" d="M274.772 167.752h3.875l-.816-8.932h-2.243z"/><path class="af" d="M277.862 158.746h-2.304v-.272h2.304z"/><path class="ae" d="M273.734 180.137h5.951a.612.612 0 00.612-.612v-11.531a3.588 3.588 0 00-3.588-3.588 3.588 3.588 0 00-3.588 3.588v11.531a.612.612 0 00.613.612z"/><path class="ae" d="M273.734 180.137h5.951a.612.612 0 00.612-.612v-11.531a3.588 3.588 0 00-3.588-3.588 3.588 3.588 0 00-3.588 3.588v11.531a.612.612 0 00.613.612z"/><path class="ae" d="M273.123 167.994v11.532a.611.611 0 00.612.612h5.95a.611.611 0 00.612-.612v-11.532a3.593 3.593 0 00-2.028-3.233 3.526 3.526 0 00-1.412-.351h-.146a3.587 3.587 0 00-3.588 3.588zM275.557 159.025h2.3a.16.16 0 00.16-.16.161.161 0 00-.16-.16h-2.3a.161.161 0 00-.16.16.16.16 0 00.16.16zM275.557 158.517h2.3a.16.16 0 00.16-.16.161.161 0 00-.16-.16h-2.3a.161.161 0 00-.16.16.16.16 0 00.16.16z"/><path class="af" d="M275.557 158.445h2.3a.158.158 0 00.153-.124.156.156 0 01.008.036.16.16 0 01-.16.16h-2.3a.16.16 0 01-.16-.16.156.156 0 01.007-.036.158.158 0 00.152.124zM275.557 158.953h2.3a.158.158 0 00.153-.125.165.165 0 01.008.036.16.16 0 01-.16.16h-2.3a.16.16 0 01-.16-.16.165.165 0 01.007-.036.158.158 0 00.152.125zM279.685 179.676h-5.951a5.265 5.265 0 015.951 0z"/><path class="ag" d="M277.088 158.356h.787a.054.054 0 00.054-.055.054.054 0 00-.054-.054h-.787a.054.054 0 00-.055.054.054.054 0 00.055.055zM276.829 158.875h1.049a.054.054 0 00.055-.054.054.054 0 00-.055-.055h-1.049a.055.055 0 00-.055.055.055.055 0 00.055.054z"/></g><g><path class="ae" d="M266.563 167.752h3.875l-.816-8.932h-2.243z"/><path class="af" d="M269.653 158.746h-2.304v-.272h2.304z"/><path class="ae" d="M265.525 180.137h5.951a.612.612 0 00.612-.612v-11.531a3.588 3.588 0 00-3.588-3.588 3.588 3.588 0 00-3.588 3.588v11.531a.612.612 0 00.613.612z"/><path class="ae" d="M265.525 180.137h5.951a.612.612 0 00.612-.612v-11.531a3.588 3.588 0 00-3.588-3.588 3.588 3.588 0 00-3.588 3.588v11.531a.612.612 0 00.613.612z"/><path class="ae" d="M264.914 167.994v11.532a.611.611 0 00.612.612h5.95a.611.611 0 00.612-.612v-11.532a3.593 3.593 0 00-2.027-3.233 3.525 3.525 0 00-1.412-.351h-.146a3.586 3.586 0 00-3.588 3.588zM267.348 159.025h2.3a.16.16 0 00.16-.16.161.161 0 00-.16-.16h-2.3a.161.161 0 00-.16.16.16.16 0 00.16.16zM267.348 158.517h2.3a.16.16 0 00.16-.16.161.161 0 00-.16-.16h-2.3a.161.161 0 00-.16.16.16.16 0 00.16.16z"/><path class="af" d="M267.348 158.445h2.3a.159.159 0 00.153-.124.163.163 0 01.007.036.16.16 0 01-.16.16h-2.3a.16.16 0 01-.16-.16.17.17 0 01.007-.036.158.158 0 00.153.124zM267.348 158.953h2.3a.158.158 0 00.153-.125.172.172 0 01.007.036.16.16 0 01-.16.16h-2.3a.16.16 0 01-.16-.16.18.18 0 01.007-.036.158.158 0 00.153.125zM271.474 179.676h-5.951a5.265 5.265 0 015.951 0z"/><path class="ag" d="M268.878 158.356h.787a.054.054 0 00.055-.055.055.055 0 00-.055-.054h-.787a.054.054 0 00-.054.054.054.054 0 00.054.055zM268.616 158.875h1.05a.055.055 0 00.055-.054.055.055 0 00-.055-.055h-1.05a.055.055 0 00-.054.055.055.055 0 00.054.054z"/></g><g><path class="ae" d="M258.355 167.752h3.875l-.816-8.932h-2.243z"/><path class="af" d="M261.444 158.746h-2.304v-.272h2.304z"/><path class="ae" d="M257.316 180.137h5.951a.612.612 0 00.612-.612v-11.531a3.588 3.588 0 00-3.588-3.588 3.588 3.588 0 00-3.588 3.588v11.531a.612.612 0 00.613.612z"/><path class="ae" d="M257.316 180.137h5.951a.612.612 0 00.612-.612v-11.531a3.588 3.588 0 00-3.588-3.588 3.588 3.588 0 00-3.588 3.588v11.531a.612.612 0 00.613.612z"/><path class="ae" d="M256.705 167.994v11.532a.611.611 0 00.612.612h5.95a.611.611 0 00.612-.612v-11.532a3.592 3.592 0 00-2.028-3.233 3.525 3.525 0 00-1.412-.351h-.147a3.587 3.587 0 00-3.588 3.588zM259.139 159.025h2.3a.16.16 0 00.16-.16.161.161 0 00-.16-.16h-2.3a.161.161 0 00-.16.16.16.16 0 00.16.16zM259.139 158.517h2.3a.16.16 0 00.16-.16.161.161 0 00-.16-.16h-2.3a.161.161 0 00-.16.16.16.16 0 00.16.16z"/><path class="af" d="M259.139 158.445h2.3a.158.158 0 00.153-.124.144.144 0 01.008.036.16.16 0 01-.16.16h-2.3a.16.16 0 01-.16-.16.163.163 0 01.007-.036.158.158 0 00.152.124zM259.139 158.953h2.3a.158.158 0 00.153-.125.152.152 0 01.008.036.16.16 0 01-.16.16h-2.3a.16.16 0 01-.16-.16.172.172 0 01.007-.036.158.158 0 00.152.125zM263.267 179.676h-5.951a5.266 5.266 0 015.951 0z"/><path class="ag" d="M260.67 158.356h.787a.054.054 0 00.055-.055.054.054 0 00-.055-.054h-.787a.055.055 0 00-.054.054.054.054 0 00.054.055zM260.407 158.875h1.05a.054.054 0 00.054-.054.054.054 0 00-.054-.055h-1.05a.055.055 0 00-.054.055.055.055 0 00.054.054z"/></g><g><path class="ah" d="M222.846 168.416h5.557v2.368h-5.557z"/><path class="ai" d="M222.372 167.752h6.506v2.002h-6.506z"/><path class="ah" d="M230.234 178.939a1.068 1.068 0 01-1.067 1.066h-7.086a1.068 1.068 0 01-1.068-1.066v-7.089a1.066 1.066 0 011.068-1.066h7.086a1.066 1.066 0 011.067 1.066z"/><path class="aj" d="M232.066 168.416h5.557v2.368h-5.557z"/><path class="ah" d="M231.592 167.752h6.506v2.002h-6.506z"/><path class="aj" d="M239.45 178.939a1.068 1.068 0 01-1.067 1.066h-7.086a1.068 1.068 0 01-1.068-1.066v-7.089a1.066 1.066 0 011.068-1.066h7.086a1.066 1.066 0 011.067 1.066z"/><path class="ai" d="M241.606 168.416h5.557v2.368h-5.557z"/><path fill="#0dbf9d" d="M241.132 167.752h6.506v2.002h-6.506z"/><path class="ai" d="M248.994 178.939a1.068 1.068 0 01-1.066 1.066h-7.087a1.068 1.068 0 01-1.068-1.066v-7.089a1.066 1.066 0 011.068-1.066h7.087a1.066 1.066 0 011.066 1.066z"/><g><path class="al" d="M237.315 170.523h4.547v1.938h-4.547z"/><path fill="#da2d0f" d="M236.927 169.979h5.324v1.637h-5.324z"/><path class="al" d="M238.057 172.46h3.064a2.241 2.241 0 012.241 2.241v3.065a2.239 2.239 0 01-2.239 2.239h-3.066a2.241 2.241 0 01-2.241-2.245v-3.059a2.241 2.241 0 012.241-2.241z"/></g><g><path class="an" d="M227.911 170.523h4.547v1.938h-4.547z"/><path class="ao" d="M227.523 169.979h5.323v1.637h-5.323z"/><path class="an" d="M228.653 172.46h3.059a2.242 2.242 0 012.244 2.242v3.058a2.242 2.242 0 01-2.244 2.245h-3.061a2.239 2.239 0 01-2.239-2.239v-3.065a2.241 2.241 0 012.241-2.241z"/></g><g><path class="ai" d="M218.505 170.523h4.547v1.938h-4.547z"/><path class="ap" d="M218.117 169.979h5.324v1.637h-5.324z"/><path class="ai" d="M224.551 179.128a.873.873 0 01-.872.872h-5.8a.874.874 0 01-.874-.872v-5.8a.872.872 0 01.874-.872h5.8a.872.872 0 01.872.872z"/></g><g><path class="aq" d="M246.721 170.523h4.546v1.938h-4.546z"/><path class="ah" d="M246.332 169.979h5.323v1.637h-5.323z"/><path class="aq" d="M252.767 179.128a.874.874 0 01-.874.872h-5.8a.874.874 0 01-.873-.872v-5.8a.872.872 0 01.873-.872h5.8a.872.872 0 01.874.872z"/></g></g><g><path class="ar" d="M224.133 226.373h6.657v5.157h-6.657z"/><path class="as" d="M224.544 225.275h5.833v1.098h-5.833z"/><path class="at" d="M224.544 231.53h5.833v1.096h-5.833z"/><path fill="#8ea562" d="M232.161 226.373h6.658v5.157h-6.658z"/><path class="as" d="M232.573 225.275h5.833v1.098h-5.833z"/><path class="at" d="M232.573 231.53h5.833v1.096h-5.833z"/><g><path fill="#ffbc7b" d="M228.124 219.023h6.659v5.156h-6.659z"/><path class="as" d="M228.536 217.924h5.835v1.099h-5.835z"/><path class="at" d="M228.536 224.179h5.835v1.097h-5.835z"/></g><g><path fill="#ff642e" d="M236.153 219.023h6.658v5.156h-6.658z"/><path class="as" d="M236.565 217.924h5.833v1.099h-5.833z"/><path class="at" d="M236.565 224.179h5.833v1.097h-5.833z"/></g><g><path class="al" d="M240.19 226.373h6.658v5.157h-6.658z"/><path class="as" d="M240.602 225.275h5.834v1.098h-5.834z"/><path class="at" d="M240.602 231.53h5.834v1.096h-5.834z"/></g></g><g><path class="ax" d="M275.094 141.941a3.4 3.4 0 113.4-3.4 3.4 3.4 0 01-3.4 3.4z"/><path class="ax" d="M278.489 138.545h-6.793a3.4 3.4 0 006.793 0z"/><path class="ay" d="M271.593 147.894a3.4 3.4 0 113.4-3.4 3.4 3.4 0 01-3.4 3.4z"/><path class="ay" d="M274.984 144.497h-6.793a3.4 3.4 0 106.793 0z"/><path class="az" d="M280.993 146.897a3.4 3.4 0 110-4.8 3.394 3.394 0 010 4.8z"/><path class="az" d="M280.997 142.096l-4.8 4.8a3.4 3.4 0 104.8-4.8z"/><g><path class="ar" d="M271.487 150.449a3.4 3.4 0 11-3.4-3.4 3.4 3.4 0 013.4 3.4z"/><path class="ar" d="M268.091 147.052v6.794a3.4 3.4 0 000-6.794z"/><path class="ba" d="M277.496 152.851a3.4 3.4 0 110-4.8 3.4 3.4 0 010 4.8z"/><path class="ba" d="M277.496 148.047l-4.8 4.8a3.4 3.4 0 004.8-4.8z"/><g><path class="ap" d="M284.498 148.048a3.4 3.4 0 11-4.8 0 3.4 3.4 0 014.8 0z"/><path class="ap" d="M279.697 148.048l4.8 4.8a3.4 3.4 0 00-4.8-4.8z"/></g></g></g><g><path class="p" d="M209.932 232.65h-75.354V111.806h75.354z"/><path class="o" d="M212.838 236.116h-81.167v-3.311h81.167zM212.838 210.891h-81.167v-3.446h81.167zM212.838 183.413h-81.167v-3.311h81.167zM212.838 157.035h-81.167v-3.311h81.167zM212.838 130.844h-81.167v-3.311h81.167z"/><path class="q" d="M209.932 248.82h-75.354v-12.483h75.354z"/><path class="bb" d="M204.259 172.409a.238.238 0 00.2-.1l1.206-1.718a.238.238 0 10-.39-.274l-1.206 1.718a.238.238 0 00.058.332.235.235 0 00.132.042z"/><path class="bc" d="M204.583 171.732a4.513 4.513 0 011.508 6.584 5.045 5.045 0 01-8.235-5.781 4.621 4.621 0 016.727-.803z"/><path class="bd" d="M202.233 170.674a4.388 4.388 0 00-1.894 1.522 4.859 4.859 0 001.437 6.709 5.312 5.312 0 002.42.933 5.109 5.109 0 01-4.9-.595 4.858 4.858 0 01-1.437-6.708 4.613 4.613 0 014.374-1.861z"/><path class="be" d="M204.999 171.117a2.994 2.994 0 00-1.737-2.7 2.17 2.17 0 001.737 2.7z"/><path class="bb" d="M193.205 172.409a.238.238 0 00.2-.1l1.206-1.718a.238.238 0 10-.39-.274l-1.206 1.718a.238.238 0 00.195.375z"/><path class="bc" d="M193.53 171.732a4.512 4.512 0 011.508 6.584 5.045 5.045 0 01-8.235-5.781 4.621 4.621 0 016.727-.803z"/><path class="bd" d="M191.18 170.674a4.385 4.385 0 00-1.895 1.522 4.858 4.858 0 001.437 6.709 5.312 5.312 0 002.421.933 5.11 5.11 0 01-4.9-.595 4.858 4.858 0 01-1.437-6.708 4.614 4.614 0 014.374-1.861z"/><path class="be" d="M193.945 171.117a3 3 0 00-1.737-2.7 2.17 2.17 0 001.737 2.7z"/><path class="bb" d="M182.15 172.409a.238.238 0 00.2-.1l1.207-1.718a.238.238 0 10-.39-.274l-1.207 1.718a.238.238 0 00.195.375z"/><path class="bc" d="M182.476 171.732a4.512 4.512 0 011.508 6.584 5.045 5.045 0 01-8.234-5.781 4.621 4.621 0 016.726-.803z"/><path class="bd" d="M180.126 170.674a4.387 4.387 0 00-1.894 1.522 4.858 4.858 0 001.437 6.709 5.312 5.312 0 002.421.933 5.109 5.109 0 01-4.9-.595 4.858 4.858 0 01-1.437-6.708 4.613 4.613 0 014.373-1.861z"/><path class="be" d="M182.891 171.117a3 3 0 00-1.737-2.7 2.17 2.17 0 001.737 2.7z"/><g><path class="bb" d="M171.097 172.409a.238.238 0 00.2-.1l1.206-1.718a.238.238 0 10-.39-.274l-1.206 1.718a.238.238 0 00.195.375z"/><path class="bc" d="M171.422 171.732a4.512 4.512 0 011.508 6.584 5.045 5.045 0 01-8.235-5.781 4.621 4.621 0 016.727-.803z"/><path class="bd" d="M169.072 170.674a4.387 4.387 0 00-1.895 1.522 4.859 4.859 0 001.437 6.709 5.316 5.316 0 002.421.933 5.109 5.109 0 01-4.9-.595 4.858 4.858 0 01-1.438-6.708 4.614 4.614 0 014.375-1.861z"/><path class="be" d="M171.837 171.117a2.994 2.994 0 00-1.738-2.7 2.17 2.17 0 001.738 2.7z"/></g><g><path class="bb" d="M160.042 172.409a.239.239 0 00.2-.1l1.206-1.718a.238.238 0 10-.39-.274l-1.206 1.718a.238.238 0 00.195.375z"/><path class="bc" d="M160.367 171.732a4.512 4.512 0 011.507 6.584 5.045 5.045 0 01-8.234-5.781 4.621 4.621 0 016.727-.803z"/><path class="bd" d="M158.016 170.674a4.388 4.388 0 00-1.894 1.522 4.858 4.858 0 001.437 6.709 5.314 5.314 0 002.42.933 5.109 5.109 0 01-4.9-.595 4.858 4.858 0 01-1.437-6.708 4.613 4.613 0 014.374-1.861z"/><path class="be" d="M160.782 171.117a3 3 0 00-1.737-2.7 2.17 2.17 0 001.737 2.7z"/></g><g><path class="bb" d="M148.988 172.409a.238.238 0 00.2-.1l1.206-1.718a.238.238 0 10-.39-.274l-1.206 1.718a.238.238 0 00.058.332.235.235 0 00.132.042z"/><path class="bc" d="M149.313 171.732a4.512 4.512 0 011.508 6.584 5.045 5.045 0 01-8.235-5.781 4.621 4.621 0 016.727-.803z"/><path class="bd" d="M146.963 170.674a4.389 4.389 0 00-1.895 1.522 4.859 4.859 0 001.437 6.709 5.312 5.312 0 002.421.933 5.11 5.11 0 01-4.9-.595 4.858 4.858 0 01-1.437-6.708 4.614 4.614 0 014.374-1.861z"/><path class="be" d="M149.728 171.117a2.994 2.994 0 00-1.737-2.7 2.17 2.17 0 001.737 2.7z"/></g><g><path class="bb" d="M153.943 164.432a.238.238 0 00.2-.1l1.206-1.718a.238.238 0 00-.39-.274l-1.216 1.715a.238.238 0 00.195.375z"/><path class="bc" d="M154.264 163.755a4.511 4.511 0 011.508 6.583 5.045 5.045 0 01-8.235-5.78 4.621 4.621 0 016.727-.803z"/><path class="bd" d="M151.914 162.696a4.386 4.386 0 00-1.894 1.522 4.858 4.858 0 001.437 6.708 5.308 5.308 0 002.421.933 5.109 5.109 0 01-4.9-.594 4.858 4.858 0 01-1.437-6.708 4.613 4.613 0 014.373-1.861z"/><path class="be" d="M154.679 163.14a2.994 2.994 0 00-1.738-2.7 2.17 2.17 0 001.738 2.7z"/></g><g><path class="bb" d="M164.974 164.432a.237.237 0 00.195-.1l1.206-1.718a.238.238 0 10-.39-.274l-1.206 1.718a.238.238 0 00.195.375z"/><path class="bc" d="M165.299 163.755a4.512 4.512 0 011.508 6.583 5.045 5.045 0 01-8.235-5.78 4.621 4.621 0 016.727-.803z"/><path class="bd" d="M162.948 162.696a4.383 4.383 0 00-1.894 1.522 4.858 4.858 0 001.437 6.708 5.3 5.3 0 002.421.933 5.11 5.11 0 01-4.9-.594 4.857 4.857 0 01-1.437-6.708 4.613 4.613 0 014.373-1.861z"/><path class="be" d="M165.714 163.14a3 3 0 00-1.737-2.7 2.17 2.17 0 001.737 2.7z"/></g><g><path class="bb" d="M176.012 164.432a.238.238 0 00.2-.1l1.206-1.718a.238.238 0 10-.39-.274l-1.216 1.715a.238.238 0 00.195.375z"/><path class="bc" d="M176.332 163.755a4.512 4.512 0 011.508 6.583 5.045 5.045 0 01-8.235-5.78 4.621 4.621 0 016.727-.803z"/><path class="bd" d="M173.983 162.696a4.386 4.386 0 00-1.894 1.522 4.858 4.858 0 001.437 6.708 5.3 5.3 0 002.42.933 5.109 5.109 0 01-4.9-.594 4.858 4.858 0 01-1.437-6.708 4.613 4.613 0 014.374-1.861z"/><path class="be" d="M176.749 163.14a3 3 0 00-1.737-2.7 2.17 2.17 0 001.737 2.7z"/></g><g><path class="bb" d="M187.044 164.432a.239.239 0 00.2-.1l1.206-1.718a.238.238 0 10-.39-.274l-1.206 1.718a.238.238 0 00.195.375z"/><path class="bc" d="M187.368 163.755a4.512 4.512 0 011.508 6.583 5.045 5.045 0 01-8.235-5.78 4.621 4.621 0 016.727-.803z"/><path class="bd" d="M185.016 162.696a4.387 4.387 0 00-1.894 1.522 4.858 4.858 0 001.437 6.708 5.305 5.305 0 002.421.933 5.109 5.109 0 01-4.9-.594 4.858 4.858 0 01-1.437-6.708 4.613 4.613 0 014.373-1.861z"/><path class="be" d="M187.785 163.14a3 3 0 00-1.738-2.7 2.17 2.17 0 001.738 2.7z"/></g><g><path class="bb" d="M198.081 164.432a.237.237 0 00.2-.1l1.206-1.718a.238.238 0 10-.39-.274l-1.216 1.715a.238.238 0 00.058.332.236.236 0 00.142.045z"/><path class="bc" d="M198.401 163.755a4.512 4.512 0 011.508 6.583 5.045 5.045 0 01-8.235-5.78 4.621 4.621 0 016.727-.803z"/><path class="bd" d="M196.054 162.696a4.388 4.388 0 00-1.895 1.522 4.858 4.858 0 001.437 6.708 5.3 5.3 0 002.421.933 5.11 5.11 0 01-4.9-.594 4.858 4.858 0 01-1.437-6.708 4.613 4.613 0 014.374-1.861z"/><path class="be" d="M198.819 163.14a3 3 0 00-1.737-2.7 2.17 2.17 0 001.737 2.7z"/></g><g><path class="bf" d="M204.248 115.916c-3.072 0-2.772 3.244-3.457 5.514s-.867 6.066 3.457 6.066 4.142-3.8 3.457-6.066-.385-5.514-3.457-5.514z"/><path class="bg" d="M202.458 117.767c-.182 0-.212.227 0 .227s.121-.227 0-.227zM203.322 117.058c-.182 0-.212.227 0 .227s.121-.227 0-.227zM204.1 116.178c-.182 0-.212.227 0 .227s.121-.227 0-.227zM202.902 118.72c-.182 0-.212.227 0 .227s.121-.227 0-.227zM203.963 118.068c-.182 0-.212.227 0 .227s.121-.227 0-.227zM204.569 117.169c-.181 0-.212.227 0 .227s.122-.227 0-.227zM205.246 117.956c-.182 0-.212.227 0 .227s.121-.227 0-.227zM202.028 119.19c-.181 0-.212.227 0 .227s.122-.227 0-.227zM204.844 119.076c-.182 0-.212.227 0 .227s.121-.227 0-.227zM206.358 120.114c-.182 0-.212.227 0 .227s.121-.227 0-.227zM202.596 120.295c-.181 0-.212.227 0 .227s.122-.227 0-.227zM202.321 121.365c-.182 0-.212.227 0 .227s.121-.227 0-.227zM203.184 122.353c-.182 0-.212.227 0 .227s.121-.227 0-.227zM202.184 124.085c-.182 0-.212.227 0 .227s.121-.227 0-.227zM203.687 119.887c-.181 0-.212.227 0 .227s.122-.227 0-.227zM203.963 121.479c-.182 0-.212.227 0 .227s.121-.227 0-.227zM204.982 122.548c-.182 0-.212.227 0 .227s.121-.227 0-.227zM206.081 124.463c-.181 0-.212.227 0 .227s.122-.227 0-.227zM204.844 120.52c-.182 0-.212.227 0 .227s.121-.227 0-.227zM203.963 123.746c-.182 0-.212.227 0 .227s.121-.227 0-.227zM204.844 125.806c-.182 0-.212.227 0 .227s.121-.227 0-.227zM203.459 125.245c-.182 0-.212.227 0 .227s.121-.227 0-.227zM203.963 126.547c-.182 0-.212.227 0 .227s.121-.227 0-.227zM206.22 121.706c-.181 0-.212.227 0 .227s.122-.227 0-.227zM207.121 122.77c-.182 0-.212.227 0 .227s.121-.227 0-.227zM201.584 120.704c-.182 0-.212.227 0 .227s.121-.227 0-.227zM201.308 122.657c-.181 0-.212.227 0 .227s.122-.227 0-.227zM201.446 125.578c-.182 0-.212.227 0 .227s.121-.227 0-.227z"/></g><g><path class="bf" d="M196.31 115.916c-3.072 0-2.771 3.244-3.457 5.514s-.866 6.066 3.457 6.066 4.143-3.8 3.457-6.066-.385-5.514-3.457-5.514z"/><path class="bg" d="M194.522 117.767c-.182 0-.212.227 0 .227s.119-.227 0-.227zM195.382 117.058c-.181 0-.212.227 0 .227s.122-.227 0-.227zM196.161 116.178c-.181 0-.212.227 0 .227s.121-.227 0-.227zM194.964 118.72c-.182 0-.212.227 0 .227s.121-.227 0-.227zM196.024 118.068c-.182 0-.212.227 0 .227s.121-.227 0-.227zM196.63 117.169c-.182 0-.212.227 0 .227s.121-.227 0-.227zM197.306 117.956c-.182 0-.212.227 0 .227s.121-.227 0-.227zM194.09 119.19c-.182 0-.212.227 0 .227s.121-.227 0-.227zM196.905 119.076c-.181 0-.212.227 0 .227s.121-.227 0-.227zM198.419 120.114c-.182 0-.212.227 0 .227s.121-.227 0-.227zM194.657 120.295c-.182 0-.212.227 0 .227s.121-.227 0-.227zM194.382 121.365c-.182 0-.212.227 0 .227s.121-.227 0-.227zM195.245 122.353c-.181 0-.212.227 0 .227s.121-.227 0-.227zM194.244 124.085c-.181 0-.212.227 0 .227s.122-.227 0-.227zM195.749 119.887c-.182 0-.212.227 0 .227s.121-.227 0-.227zM196.024 121.479c-.182 0-.212.227 0 .227s.121-.227 0-.227zM197.042 122.548c-.181 0-.212.227 0 .227s.121-.227 0-.227zM198.144 124.463c-.182 0-.212.227 0 .227s.121-.227 0-.227zM196.905 120.52c-.181 0-.212.227 0 .227s.121-.227 0-.227zM196.024 123.746c-.182 0-.212.227 0 .227s.121-.227 0-.227zM196.905 125.806c-.181 0-.212.227 0 .227s.121-.227 0-.227zM195.52 125.245c-.182 0-.212.227 0 .227s.121-.227 0-.227zM196.024 126.547c-.182 0-.212.227 0 .227s.121-.227 0-.227zM198.281 121.706c-.182 0-.212.227 0 .227s.121-.227 0-.227zM199.182 122.77c-.182 0-.212.227 0 .227s.124-.227 0-.227zM193.644 120.704c-.182 0-.212.227 0 .227s.121-.227 0-.227zM193.37 122.657c-.182 0-.212.227 0 .227s.121-.227 0-.227zM193.51 125.578c-.182 0-.212.227 0 .227s.118-.227 0-.227z"/></g><g><path class="bf" d="M188.373 115.916c-3.072 0-2.772 3.244-3.457 5.514s-.866 6.066 3.457 6.066 4.142-3.8 3.457-6.066-.383-5.514-3.457-5.514z"/><path class="bg" d="M186.583 117.767c-.181 0-.212.227 0 .227s.121-.227 0-.227zM187.447 117.058c-.182 0-.212.227 0 .227s.121-.227 0-.227zM188.225 116.178c-.182 0-.212.227 0 .227s.121-.227 0-.227zM187.027 118.72c-.182 0-.212.227 0 .227s.121-.227 0-.227zM188.088 118.068c-.182 0-.212.227 0 .227s.121-.227 0-.227zM188.694 117.169c-.181 0-.212.227 0 .227s.122-.227 0-.227zM189.37 117.956c-.182 0-.212.227 0 .227s.121-.227 0-.227zM186.153 119.19c-.181 0-.212.227 0 .227s.122-.227 0-.227zM188.969 119.076c-.182 0-.212.227 0 .227s.121-.227 0-.227zM190.483 120.114c-.182 0-.212.227 0 .227s.121-.227 0-.227zM186.721 120.295c-.181 0-.212.227 0 .227s.122-.227 0-.227zM186.446 121.365c-.182 0-.212.227 0 .227s.121-.227 0-.227zM187.309 122.353c-.182 0-.212.227 0 .227s.121-.227 0-.227zM186.31 124.085c-.182 0-.212.227 0 .227s.12-.227 0-.227zM187.813 119.887c-.181 0-.212.227 0 .227s.121-.227 0-.227zM188.088 121.479c-.182 0-.212.227 0 .227s.121-.227 0-.227zM189.107 122.548c-.182 0-.212.227 0 .227s.121-.227 0-.227zM190.207 124.463c-.181 0-.212.227 0 .227s.121-.227 0-.227zM188.969 120.52c-.182 0-.212.227 0 .227s.121-.227 0-.227zM188.088 123.746c-.182 0-.212.227 0 .227s.121-.227 0-.227zM188.969 125.806c-.182 0-.212.227 0 .227s.121-.227 0-.227zM187.584 125.245c-.182 0-.212.227 0 .227s.125-.227 0-.227zM188.088 126.547c-.182 0-.212.227 0 .227s.121-.227 0-.227zM190.346 121.706c-.182 0-.212.227 0 .227s.121-.227 0-.227zM191.246 122.77c-.182 0-.212.227 0 .227s.117-.227 0-.227zM185.709 120.704c-.182 0-.212.227 0 .227s.121-.227 0-.227zM185.433 122.657c-.181 0-.212.227 0 .227s.122-.227 0-.227zM185.567 125.578c-.182 0-.212.227 0 .227s.126-.227 0-.227z"/></g><g><path class="bf" d="M180.435 115.916c-3.072 0-2.771 3.244-3.457 5.514s-.866 6.066 3.457 6.066 4.143-3.8 3.457-6.066-.385-5.514-3.457-5.514z"/><path class="bg" d="M178.645 117.767c-.182 0-.212.227 0 .227s.121-.227 0-.227zM179.507 117.058c-.181 0-.212.227 0 .227s.122-.227 0-.227zM180.286 116.178c-.181 0-.212.227 0 .227s.121-.227 0-.227zM179.089 118.72c-.182 0-.212.227 0 .227s.121-.227 0-.227zM180.149 118.068c-.182 0-.212.227 0 .227s.123-.227 0-.227zM180.755 117.169c-.182 0-.212.227 0 .227s.121-.227 0-.227zM181.431 117.956c-.182 0-.212.227 0 .227s.121-.227 0-.227zM178.214 119.19c-.182 0-.212.227 0 .227s.121-.227 0-.227zM181.031 119.076c-.182 0-.212.227 0 .227s.12-.227 0-.227zM182.543 120.114c-.181 0-.212.227 0 .227s.121-.227 0-.227zM178.782 120.295c-.182 0-.212.227 0 .227s.121-.227 0-.227zM178.507 121.365c-.182 0-.212.227 0 .227s.121-.227 0-.227zM179.37 122.353c-.181 0-.212.227 0 .227s.124-.227 0-.227zM178.369 124.085c-.181 0-.212.227 0 .227s.122-.227 0-.227zM179.874 119.887c-.182 0-.212.227 0 .227s.121-.227 0-.227zM180.149 121.479c-.182 0-.212.227 0 .227s.123-.227 0-.227zM181.167 122.548c-.182 0-.212.227 0 .227s.122-.227 0-.227zM182.269 124.463c-.182 0-.212.227 0 .227s.121-.227 0-.227zM181.031 120.52c-.182 0-.212.227 0 .227s.12-.227 0-.227zM180.149 123.746c-.182 0-.212.227 0 .227s.123-.227 0-.227zM181.031 125.806c-.182 0-.212.227 0 .227s.12-.227 0-.227zM179.645 125.245c-.182 0-.212.227 0 .227s.117-.227 0-.227zM180.149 126.547c-.182 0-.212.227 0 .227s.123-.227 0-.227zM182.406 121.706c-.182 0-.212.227 0 .227s.123-.227 0-.227zM183.307 122.77c-.182 0-.212.227 0 .227s.121-.227 0-.227zM177.769 120.704c-.181 0-.212.227 0 .227s.121-.227 0-.227zM177.495 122.657c-.182 0-.212.227 0 .227s.121-.227 0-.227zM177.632 125.578c-.182 0-.212.227 0 .227s.121-.227 0-.227z"/></g><g><path class="bf" d="M172.498 115.916c-3.072 0-2.772 3.244-3.457 5.514s-.866 6.066 3.457 6.066 4.142-3.8 3.457-6.066-.385-5.514-3.457-5.514z"/><path class="bg" d="M170.708 117.767c-.181 0-.212.227 0 .227s.121-.227 0-.227zM171.572 117.058c-.182 0-.212.227 0 .227s.121-.227 0-.227zM172.35 116.178c-.182 0-.212.227 0 .227s.121-.227 0-.227zM171.152 118.72c-.182 0-.212.227 0 .227s.121-.227 0-.227zM172.213 118.068c-.182 0-.212.227 0 .227s.121-.227 0-.227zM172.819 117.169c-.181 0-.212.227 0 .227s.122-.227 0-.227zM173.495 117.956c-.182 0-.212.227 0 .227s.12-.227 0-.227zM170.278 119.19c-.181 0-.212.227 0 .227s.122-.227 0-.227zM173.094 119.076c-.182 0-.212.227 0 .227s.121-.227 0-.227zM174.608 120.114c-.182 0-.212.227 0 .227s.121-.227 0-.227zM170.846 120.295c-.181 0-.212.227 0 .227s.122-.227 0-.227zM170.571 121.365c-.182 0-.212.227 0 .227s.121-.227 0-.227zM171.434 122.353c-.182 0-.212.227 0 .227s.116-.227 0-.227zM170.434 124.085c-.182 0-.212.227 0 .227s.121-.227 0-.227zM171.937 119.887c-.181 0-.212.227 0 .227s.122-.227 0-.227zM172.213 121.479c-.182 0-.212.227 0 .227s.121-.227 0-.227zM173.229 122.548c-.182 0-.212.227 0 .227s.123-.227 0-.227zM174.332 124.463c-.181 0-.212.227 0 .227s.121-.227 0-.227zM173.094 120.52c-.182 0-.212.227 0 .227s.121-.227 0-.227zM172.213 123.746c-.182 0-.212.227 0 .227s.121-.227 0-.227zM173.094 125.806c-.182 0-.212.227 0 .227s.121-.227 0-.227zM171.709 125.245c-.182 0-.212.227 0 .227s.121-.227 0-.227zM172.213 126.547c-.182 0-.212.227 0 .227s.121-.227 0-.227zM174.471 121.706c-.182 0-.212.227 0 .227s.121-.227 0-.227zM175.373 122.77c-.182 0-.212.227 0 .227s.119-.227 0-.227zM169.834 120.704c-.182 0-.212.227 0 .227s.121-.227 0-.227zM169.558 122.657c-.181 0-.212.227 0 .227s.122-.227 0-.227zM169.697 125.578c-.182 0-.212.227 0 .227s.121-.227 0-.227z"/></g><g><path class="bf" d="M164.56 115.916c-3.072 0-2.771 3.244-3.457 5.514s-.866 6.066 3.457 6.066 4.143-3.8 3.457-6.066-.385-5.514-3.457-5.514z"/><path class="bg" d="M162.77 117.767c-.182 0-.212.227 0 .227s.121-.227 0-.227zM163.632 117.058c-.181 0-.212.227 0 .227s.122-.227 0-.227zM164.411 116.178c-.181 0-.212.227 0 .227s.121-.227 0-.227zM163.214 118.72c-.182 0-.212.227 0 .227s.121-.227 0-.227zM164.274 118.068c-.182 0-.212.227 0 .227s.121-.227 0-.227zM164.88 117.169c-.182 0-.212.227 0 .227s.121-.227 0-.227zM165.556 117.956c-.182 0-.212.227 0 .227s.121-.227 0-.227zM162.339 119.19c-.182 0-.212.227 0 .227s.121-.227 0-.227zM165.154 119.076c-.181 0-.212.227 0 .227s.121-.227 0-.227zM166.668 120.114c-.181 0-.212.227 0 .227s.121-.227 0-.227zM162.907 120.295c-.182 0-.212.227 0 .227s.119-.227 0-.227zM162.632 121.365c-.182 0-.212.227 0 .227s.125-.227 0-.227zM163.494 122.353c-.181 0-.212.227 0 .227s.121-.227 0-.227zM162.494 124.085c-.181 0-.212.227 0 .227s.122-.227 0-.227zM163.999 119.887c-.182 0-.212.227 0 .227s.121-.227 0-.227zM164.274 121.479c-.182 0-.212.227 0 .227s.121-.227 0-.227zM165.292 122.548c-.181 0-.212.227 0 .227s.122-.227 0-.227zM166.394 124.463c-.182 0-.212.227 0 .227s.121-.227 0-.227zM165.154 120.52c-.181 0-.212.227 0 .227s.121-.227 0-.227zM164.274 123.746c-.182 0-.212.227 0 .227s.121-.227 0-.227zM165.154 125.806c-.181 0-.212.227 0 .227s.121-.227 0-.227zM163.772 125.245c-.182 0-.212.227 0 .227s.119-.227 0-.227zM164.274 126.547c-.182 0-.212.227 0 .227s.121-.227 0-.227zM166.531 121.706c-.182 0-.212.227 0 .227s.121-.227 0-.227zM167.432 122.77c-.182 0-.212.227 0 .227s.121-.227 0-.227zM161.894 120.704c-.181 0-.212.227 0 .227s.12-.227 0-.227zM161.62 122.657c-.182 0-.212.227 0 .227s.126-.227 0-.227zM161.757 125.578c-.182 0-.212.227 0 .227s.121-.227 0-.227z"/></g><g><path class="bf" d="M156.623 115.916c-3.072 0-2.772 3.244-3.457 5.514s-.866 6.066 3.457 6.066 4.142-3.8 3.457-6.066-.385-5.514-3.457-5.514z"/><path class="bg" d="M154.833 117.767c-.181 0-.212.227 0 .227s.121-.227 0-.227zM155.697 117.058c-.182 0-.212.227 0 .227s.121-.227 0-.227zM156.475 116.178c-.182 0-.212.227 0 .227s.121-.227 0-.227zM155.277 118.72c-.182 0-.212.227 0 .227s.124-.227 0-.227zM156.338 118.068c-.182 0-.212.227 0 .227s.121-.227 0-.227zM156.944 117.169c-.181 0-.212.227 0 .227s.122-.227 0-.227zM157.625 117.956c-.182 0-.212.227 0 .227s.116-.227 0-.227zM154.403 119.19c-.181 0-.212.227 0 .227s.122-.227 0-.227zM157.219 119.076c-.182 0-.212.227 0 .227s.121-.227 0-.227zM158.733 120.114c-.182 0-.212.227 0 .227s.121-.227 0-.227zM154.971 120.295c-.181 0-.212.227 0 .227s.122-.227 0-.227zM154.696 121.365c-.182 0-.212.227 0 .227s.118-.227 0-.227zM155.56 122.353c-.182 0-.212.227 0 .227s.12-.227 0-.227zM154.559 124.085c-.182 0-.212.227 0 .227s.121-.227 0-.227zM156.062 119.887c-.181 0-.212.227 0 .227s.121-.227 0-.227zM156.338 121.479c-.182 0-.212.227 0 .227s.121-.227 0-.227zM157.356 122.548c-.182 0-.212.227 0 .227s.121-.227 0-.227zM158.457 124.463c-.181 0-.212.227 0 .227s.121-.227 0-.227zM157.219 120.52c-.182 0-.212.227 0 .227s.121-.227 0-.227zM156.338 123.746c-.182 0-.212.227 0 .227s.121-.227 0-.227zM157.219 125.806c-.182 0-.212.227 0 .227s.121-.227 0-.227zM155.834 125.245c-.182 0-.212.227 0 .227s.121-.227 0-.227zM156.338 126.547c-.182 0-.212.227 0 .227s.121-.227 0-.227zM158.595 121.706c-.182 0-.212.227 0 .227s.121-.227 0-.227zM159.496 122.77c-.182 0-.212.227 0 .227s.121-.227 0-.227zM153.959 120.704c-.182 0-.212.227 0 .227s.121-.227 0-.227zM153.683 122.657c-.181 0-.212.227 0 .227s.119-.227 0-.227zM153.822 125.578c-.182 0-.212.227 0 .227s.121-.227 0-.227z"/></g><g><path class="bf" d="M148.685 115.916c-3.072 0-2.771 3.244-3.457 5.514s-.867 6.066 3.457 6.066 4.143-3.8 3.457-6.066-.385-5.514-3.457-5.514z"/><path class="bg" d="M146.895 117.767c-.182 0-.212.227 0 .227s.121-.227 0-.227zM147.757 117.058c-.181 0-.212.227 0 .227s.122-.227 0-.227zM148.536 116.178c-.181 0-.212.227 0 .227s.121-.227 0-.227zM147.339 118.72c-.182 0-.212.227 0 .227s.116-.227 0-.227zM148.399 118.068c-.182 0-.212.227 0 .227s.121-.227 0-.227zM149.005 117.169c-.182 0-.212.227 0 .227s.121-.227 0-.227zM149.679 117.956c-.182 0-.212.227 0 .227s.123-.227 0-.227zM146.464 119.19c-.182 0-.212.227 0 .227s.121-.227 0-.227zM149.28 119.076c-.181 0-.212.227 0 .227s.121-.227 0-.227zM150.793 120.114c-.181 0-.212.227 0 .227s.121-.227 0-.227zM147.036 120.295c-.182 0-.212.227 0 .227s.117-.227 0-.227zM146.757 121.365c-.182 0-.212.227 0 .227s.121-.227 0-.227zM147.619 122.353c-.181 0-.212.227 0 .227s.121-.227 0-.227zM146.619 124.085c-.181 0-.212.227 0 .227s.122-.227 0-.227zM148.123 119.887c-.182 0-.212.227 0 .227s.122-.227 0-.227zM148.399 121.479c-.182 0-.212.227 0 .227s.121-.227 0-.227zM149.417 122.548c-.182 0-.212.227 0 .227s.122-.227 0-.227zM150.519 124.463c-.182 0-.212.227 0 .227s.121-.227 0-.227zM149.28 120.52c-.181 0-.212.227 0 .227s.121-.227 0-.227zM148.399 123.746c-.182 0-.212.227 0 .227s.121-.227 0-.227zM149.28 125.806c-.181 0-.212.227 0 .227s.121-.227 0-.227zM147.895 125.245c-.182 0-.212.227 0 .227s.121-.227 0-.227zM148.399 126.547c-.182 0-.212.227 0 .227s.121-.227 0-.227zM150.656 121.706c-.182 0-.212.227 0 .227s.121-.227 0-.227zM151.557 122.77c-.182 0-.212.227 0 .227s.121-.227 0-.227zM146.024 120.704c-.182 0-.212.227 0 .227s.116-.227 0-.227zM145.745 122.657c-.182 0-.212.227 0 .227s.121-.227 0-.227zM145.882 125.578c-.182 0-.212.227 0 .227s.121-.227 0-.227z"/></g><g><path class="bf" d="M140.748 115.916c-3.072 0-2.772 3.244-3.457 5.514s-.866 6.066 3.457 6.066 4.142-3.8 3.457-6.066-.385-5.514-3.457-5.514z"/><path class="bg" d="M138.958 117.767c-.181 0-.212.227 0 .227s.121-.227 0-.227zM139.821 117.058c-.182 0-.212.227 0 .227s.121-.227 0-.227zM140.6 116.178c-.182 0-.212.227 0 .227s.121-.227 0-.227zM139.402 118.72c-.182 0-.212.227 0 .227s.121-.227 0-.227zM140.463 118.068c-.182 0-.212.227 0 .227s.121-.227 0-.227zM141.069 117.169c-.181 0-.212.227 0 .227s.122-.227 0-.227zM141.745 117.956c-.182 0-.212.227 0 .227s.121-.227 0-.227zM138.529 119.19c-.182 0-.212.227 0 .227s.121-.227 0-.227zM141.344 119.076c-.182 0-.212.227 0 .227s.121-.227 0-.227zM142.858 120.114c-.182 0-.212.227 0 .227s.121-.227 0-.227zM139.093 120.295c-.181 0-.212.227 0 .227s.125-.227 0-.227zM138.824 121.365c-.182 0-.212.227 0 .227s.118-.227 0-.227zM139.684 122.353c-.182 0-.212.227 0 .227s.121-.227 0-.227zM138.684 124.085c-.182 0-.212.227 0 .227s.121-.227 0-.227zM140.187 119.887c-.181 0-.212.227 0 .227s.121-.227 0-.227zM140.463 121.479c-.182 0-.212.227 0 .227s.121-.227 0-.227zM141.481 122.548c-.182 0-.212.227 0 .227s.121-.227 0-.227zM142.582 124.463c-.181 0-.212.227 0 .227s.121-.227 0-.227zM141.344 120.52c-.182 0-.212.227 0 .227s.121-.227 0-.227zM140.463 123.746c-.182 0-.212.227 0 .227s.121-.227 0-.227zM141.344 125.806c-.182 0-.212.227 0 .227s.121-.227 0-.227zM139.959 125.245c-.182 0-.212.227 0 .227s.121-.227 0-.227zM140.463 126.547c-.182 0-.212.227 0 .227s.121-.227 0-.227zM142.721 121.706c-.182 0-.212.227 0 .227s.121-.227 0-.227zM143.621 122.77c-.182 0-.212.227 0 .227s.121-.227 0-.227zM138.081 120.704c-.182 0-.212.227 0 .227s.124-.227 0-.227zM137.812 122.657c-.181 0-.212.227 0 .227s.118-.227 0-.227zM137.947 125.578c-.182 0-.212.227 0 .227s.121-.227 0-.227z"/></g></g></g><g><path class="bh" d="M364.275 293.275h-53.812v-44.374h53.812z"/><path class="o" d="M391.182 293.275H337.37v-44.374h53.812z"/><path d="M310.494 282.021h8.527l-.751-2.4.751-1.716h-8.527z" fill="#9dc3f3"/><path class="bh" d="M337.369 262.634h8.527l-.751-2.4.751-1.713h-8.527z"/><path class="o" d="M337.37 258.521h-8.527l.751 2.4-.751 1.713h8.527z"/><path class="bh" d="M391.185 282.498h-8.53l.754 2.4-.754 1.716h8.53z"/><path class="bj" d="M372.172 251.911h15.485v6.025h-15.485z"/><path class="bk" d="M295.216 293.275h-53.812v-44.374h53.812z"/><path class="o" d="M322.121 293.275h-53.812v-44.374h53.812zM241.434 282.021h8.527l-.751-2.4.751-1.716h-8.527z"/><path class="bk" d="M268.309 262.634h8.527l-.751-2.4.751-1.713h-8.527z"/><path class="o" d="M268.309 258.521h-8.527l.751 2.4-.751 1.713h8.527z"/><path class="bk" d="M322.125 282.498h-8.527l.751 2.4-.751 1.716h8.527zM322.125 257.936h-8.527l.751 2.4-.751 1.713h8.527z"/><path class="bj" d="M273.743 278.704h25.239v9.818h-25.239z"/><path class="bk" d="M278.412 248.699h-41.14v-33.923h41.14z"/><path class="o" d="M298.982 248.699h-41.14v-33.923h41.14zM237.297 240.096h6.517l-.572-1.835.572-1.31h-6.517z"/><path class="bk" d="M257.842 225.275h6.52l-.575-1.834.575-1.31h-6.52z"/><path class="o" d="M257.842 222.13h-6.517l.572 1.834-.572 1.31h6.517z"/><path class="bk" d="M298.985 240.46h-6.52l.575 1.834-.575 1.311h6.52z"/><path class="bj" d="M284.449 217.077h11.838v4.606h-11.838z"/><path class="bk" d="M351.918 248.699h-41.14v-33.923h41.14z"/><path class="o" d="M372.485 248.699h-41.14v-33.923h41.14zM310.801 240.096h6.52l-.575-1.835.575-1.31h-6.52z"/><path class="bk" d="M331.348 225.275h6.52l-.572-1.834.572-1.31h-6.52z"/><path class="o" d="M331.349 222.13h-6.52l.575 1.834-.575 1.31h6.52z"/><path class="bk" d="M372.489 240.46h-6.52l.575 1.834-.575 1.311h6.52z"/><path class="bj" d="M357.956 217.077h11.838v4.606h-11.838z"/></g><g><path class="bl" d="M95.623 187.006h88.987v62.726H95.623z"/><path fill="#d2e0ff" d="M93.268 187.006h111.054v3.953H93.268z"/><path d="M118.774 159.853l-2.132 25.351s-.223 1.537.92 1.539h9.354s-1.414-.32-1.4-1.04c.02-.849 2.492-26.09 2.492-26.09z" fill="#d86713"/><path class="k" d="M127.524 186.283c-.37 0-7.509.024-9.34 0-.8-.01-.938-.709-.944-1.162a2.264 2.264 0 01.024-.377l.055-.659.141-1.679.125-1.484.16-1.907.135-1.609 1.515-18.014 9.237-.24s-1.041 10.564-1.777 18.253l-.233 2.445-.068.717-.185 1.986-.079.865a53.407 53.407 0 00-.15 1.825 1.051 1.051 0 00.018.205c.153.81 1.23.835 1.366.835z"/><path class="m" d="M96.343 146.058l5.193 20.86.711 2.857 2.419 9.717h44.938l-8.916-33.434z"/><path class="m" d="M96.343 146.058l-.72.24 8.086 33.92.957-.726z"/><path class="m" d="M103.711 180.218h44.661l1.233-.726h-44.939z"/><path class="bo" d="M129.063 186.753h-9.67v-.46h9.67zM147.427 173.336l-7.292-26.831H96.276v-.442h44.418l7.267 27.214z"/><path class="j" d="M126.605 180.218l-.05.351-9.094 1.837.125-1.484.059-.7z"/><path d="M127.524 186.284c-.37 0-7.509.024-9.34 0-.8-.01-.938-.709-.944-1.162l9.051-1.7a53.407 53.407 0 00-.15 1.825 1.057 1.057 0 00.018.205c.152.806 1.228.832 1.365.832z" opacity=".4" fill="#d86713"/><path d="M124.407 172.724l-19.74 6.768-2.419-9.716z" opacity=".4" fill="#0b397d"/><path class="bl" d="M96.343 146.058h44.345l7.2 26.87h-45.08z"/><path class="bj" d="M145.792 171.764h-41.521l-4.7-18.732-.36-1.437-.308-1.225-.721-2.873h40.92l.792 2.873.338 1.225.4 1.437z"/><path class="br" d="M135.107 148.807l-1.867.026-.042-.162 1.867-.026zM134.696 149.253l-1.342.019-.042-.162 1.342-.019zM136.237 149.233l-1.342.019-.042-.162 1.342-.019zM137.353 149.218l-.832.012-.042-.162.832-.012zM136.606 148.787l-1.152.016-.042-.162 1.152-.016zM138.179 148.764l-1.152.016-.042-.162 1.152-.016z"/><g><path class="br" d="M140.088 170.098l-1.867.026-.042-.162 1.867-.026zM139.677 170.545l-1.342.019-.042-.163 1.342-.019zM141.219 170.523l-1.342.019-.042-.162 1.342-.019zM142.334 170.507l-.832.012-.042-.162.832-.012zM141.587 170.076l-1.152.016-.042-.162 1.152-.016zM143.16 170.054l-1.152.016-.042-.162 1.152-.016z"/></g><path class="f" d="M102.123 151.27h30.957l.843 2.968h-30.952zM123.891 168.443h7.006l.848 2.12h-7.43z"/><path d="M103.819 156.358h19.224l3.83 11.089h-19.648z" fill="#f3f7ff"/><g><path d="M148.616 244.078s-.4 6.235-1.607 6.322c-.161.011-6.119 0-6.119 0l-7.607-.061a2.468 2.468 0 012.278-2.215c2.224-.383 5.949-1.937 7.3-4.873 1.427-3.091 5.755.827 5.755.827z" fill="#0e2c4f"/><path class="bu" d="M170.39 192.789c.291.245 8.038 8.639 7.405 15.086a3.719 3.719 0 01-3.72 3.317h-9.437s-9.629 1.721-9.859 3.8-2.2 13.3-6.1 29.238c0 0-2.878.991-4.623.283-2.308-.936-2.643-1.928-2.643-1.928s2.328-35.694 4.165-38.206 20.768-9.98 26.9-10.723-2.088-.867-2.088-.867z"/><path class="k" d="M115.66 183.886s-5.475-1.273-6.876 0a6.9 6.9 0 00-1.846 3.12h8.722z"/><path class="bu" d="M135.284 244.078s-.4 6.235-1.607 6.322c-.16.011-6.119 0-6.119 0l-7.607-.061a2.468 2.468 0 012.278-2.215c2.224-.383 5.949-1.937 7.3-4.873 1.427-3.091 5.755.827 5.755.827z"/><path class="bv" d="M177.548 192.789a51.873 51.873 0 013.016 9.821 7.07 7.07 0 01-6.9 8.583h-21.957s-9.629 1.721-9.859 3.8-2.2 13.3-6.1 29.238a9.19 9.19 0 01-5.142-.206 6.368 6.368 0 01-2.145-1.741s2.348-35.392 4.186-37.9 20.768-9.98 26.9-10.723 18.001-.872 18.001-.872z"/><path class="bw" d="M165.378 160.879l-3.395 3.259h-5.785c-.007-.465.013-2.405.033-4.163v-.308c0-.39.01-.767.014-1.11l.021-1.67 1.487-1.017 3.3-2.262 1.786-1.221c0 .03.148 1.628.17 1.86a13.55 13.55 0 002.369 6.632z"/><path class="bu" d="M156.969 160.29c.11-.046 6.369-2.854 7.1-2.612s1.644 2.477 1.644 2.477l-11.021 2.492a5.474 5.474 0 012.277-2.357z"/><path class="bx" d="M184.039 179.046c-1.192-7.353-6.227-12.856-8.382-14.92-1.447-2.176-9.944-3.971-9.944-3.971l-11.021 2.491a14.043 14.043 0 00-9.715 6.468c-2.166 3.583-8.371 11.778-12.446 12.033s-16.872 2.738-16.872 2.738v3.148l19.51.535a3.3 3.3 0 00.71-.056c1.679-.317 8.875-1.747 12.454-3.609.572 9.216 1.247 23.289 4.465 25.524 3.4 2.364 27.346 2.68 29.882-.923 1.3-1.844-.293-12.761-2.281-23.288 2.472-1.18 4.14-3.086 3.64-6.17z"/><path d="M161.923 155.536l-.295.183a23.677 23.677 0 01-5.379 2.839c.011-.968.021-1.67.021-1.67l1.487-1.017z" fill="#eaa16e"/><path class="bw" d="M154.244 156.938s8.9 1.053 9.471-4.5 2.1-9.157-3.555-10.064-6.982 1.1-7.623 2.905-.593 11.242 1.707 11.659z"/><path class="bu" d="M152.773 144.711s1.68 6.024 2.9 5.522 2.329-.914 2.488.967-1.2 4.341 2.765 3.938 7.7-11.516 6.267-13.222c-4.123-4.922-20.145-3.078-14.42 2.795z"/></g><g transform="translate(138.954 165.658)"><path d="M49.569 46.728H7.515v-5h47.054a5 5 0 01-5 5z" fill="#77a4e5"/><rect class="ca" width="37.785" height="4.996" rx="2.498" transform="rotate(180 18.892 23.364)"/><g transform="translate(15.766 46.728)"><path class="bv" d="M14.202 36.14h2.84l.8-36.137h-4.338z"/><path class="bv" d="M1.86 36.137h27.619v-2.495l-14.077-1.27-13.542 1.27z"/><circle class="bv" cx="2.272" cy="2.272" r="2.272" transform="rotate(-40.675 61.236 -18.248)"/><path class="bv" d="M4.544 35.743a2.272 2.272 0 10-2.272 2.272 2.272 2.272 0 002.272-2.272zM2.851 2.371H28.49A2.371 2.371 0 0030.861 0H.48a2.371 2.371 0 002.371 2.371z"/></g><path class="ca" d="M50.219 46.728a2.162 2.162 0 002.162-2.162V11.29c0-6.236-4.077-11.291-9.106-11.291H22.684c-5.029 0-9.106 5.055-9.106 11.291v35.438z"/><path d="M50.626 46.728a3.943 3.943 0 003.943-3.943v-31.5c0-6.236-4.077-11.291-9.106-11.291H24.871c-5.029 0-9.106 5.055-9.106 11.291v35.438z" fill="#a78561"/></g><g><path d="M136.774 164.269h-.844l.074.237-.074.17h.844z" fill="#e3f0ff"/><path class="bj" d="M134.892 161.241h1.533v.596h-1.533z"/><path fill="#d8702a" d="M133.43 159.047h3.282v2.706h-3.282z"/><path fill="#ff9e55" d="M131.79 159.047h3.282v2.706h-3.282z"/><path class="cf" d="M136.711 161.067h-.52l.046-.146-.046-.1h.52z"/><path class="bw" d="M135.071 159.884h-.52l.046-.146-.046-.1h.52z"/><path class="cf" d="M135.071 159.633h.52l-.046.146.046.1h-.52z"/><path class="bw" d="M131.789 161.096h.52l-.046.146.046.1h-.52z"/><path class="bj" d="M132.949 159.598h-.945v-.368h.945z"/><path class="bw" d="M133.338 161.638c-.08-.052-.26-.165-.269-.138a.119.119 0 00.027.085.759.759 0 00-.47 0 .193.193 0 00-.123.088.084.084 0 00.034.131c.134.074.094.029.28.14a.534.534 0 00.538.045l.177-.037.01-.293s-.101-.008-.204-.021zM137.938 158.617a.91.91 0 01-.991.109 1.61 1.61 0 01-.025-.5l.012-.072c.039-.227.056-.356.056-.356.025-.005.864-.179.859-.153a1.406 1.406 0 00.089.972z"/><path d="M137.745 157.781a1.236 1.236 0 01-.81.377c.04-.227.056-.356.056-.356a5.113 5.113 0 01.754-.021z" fill="#ed975d"/><path class="bw" d="M136.832 157.748s.837.371 1.06-.155.48-.831-.045-1.089-.715-.1-.832.055-.397 1.079-.183 1.189z"/><path d="M137.834 157.737c.011.009.188.1.678-.541a.632.632 0 00.07-.573 1.706 1.706 0 00-.894-.638c-.371-.145-.5.054-.635.255a1.2 1.2 0 01-.448.347c.3.248.747.057.877.127s.139.3.136.369 0 .133.188.1.033.26-.006.315c0 .003-.054.156.034.239z" fill="#343434"/><path class="ci" d="M139.115 171.722h.542c.111 0 .239-.111.27-.321s.264-.321.315-.49-.208-.408-.208-.408l-.043-.055-.045-.058-.427.1s-.01.1-.017.231a2.739 2.739 0 000 .3c.012.226-.064.47-.265.514s-.122.187-.122.187zM135.357 171.721h1.431a.107.107 0 00.03-.009c.1-.048.065-.413.054-.526v-.033s-.5-.4-.572-.094c0 .009 0 .019-.007.028-.087.288-.478.419-.7.456a.247.247 0 00-.236.178z"/><path class="cj" d="M135.647 163.473s.077.953.166 2.1c.122 1.556.269 3.468.283 3.829.025.629.126 1.633.126 1.633a.79.79 0 00.717.138 16.412 16.412 0 00.547-2.954c0-.025 0-.05.006-.074.111-1.547.266-5 .266-5z"/><path d="M135.931 163.408a5.936 5.936 0 00.225 1.711 26.908 26.908 0 001.33 3.1c0-.025 0-.05.006-.074.111-1.547.289-4.8.289-4.8z" fill="#5666cf"/><path class="cj" d="M135.931 163.408s1.442 3.628 2.347 5.25 1.188 2.075 1.188 2.075.52-.208.566-.349c0 0-.347-3.132-.953-3.895a5.742 5.742 0 01-.764-2.178c-.019-.453-.122-1.349-.122-1.349z"/><path class="bx" d="M135.859 163.339a12.536 12.536 0 002.33-.186 17.7 17.7 0 01.2-1.894c.02-.151.035-.3.046-.45a6.785 6.785 0 000-1.1 2.11 2.11 0 00-.59-1.364c-.037-.03-.167.07-.386.159a.77.77 0 01-.547-.027l-.234.205a2.209 2.209 0 00-.5.706s-.337 3.95-.319 3.951z"/><path class="cj" d="M136.173 159.391l.581.135.8 2.166a.792.792 0 00.742.518l-.07 1.069-2.58.194z"/><path class="bx" d="M133.386 161.805c-.018-.169.068-.2.068-.2s1.713-.379 1.856-.431a18.671 18.671 0 001.349-1.4s.459-.561.858-.456a.74.74 0 01.546.6.75.75 0 01-.318.782 19.889 19.889 0 01-2 1.233 9.4 9.4 0 01-2.277.1.538.538 0 01-.082-.228z"/><path class="cj" d="M137.356 158.899c.136-.125.569-.471.569-.471l-.082-.079a3.141 3.141 0 00-.656.458c-.18.16-.679.683-.679.683l.245.037s.444-.48.603-.628z"/></g></g><g class="cl"><path class="bb" d="M108.581 156.942a.065.065 0 00.054-.028l.331-.471a.065.065 0 00-.107-.075l-.331.471a.065.065 0 00.016.091.064.064 0 00.037.012z"/><path class="bc" d="M108.672 156.756a1.238 1.238 0 01.414 1.806 1.384 1.384 0 01-2.259-1.585 1.267 1.267 0 011.845-.221z"/><path class="bd" d="M108.027 156.466a1.2 1.2 0 00-.52.418 1.332 1.332 0 00.394 1.84 1.456 1.456 0 00.664.256 1.4 1.4 0 01-1.345-.163 1.332 1.332 0 01-.394-1.84 1.265 1.265 0 011.201-.511z"/><path class="be" d="M108.787 156.588a.821.821 0 00-.476-.742.6.6 0 00.476.742z"/></g><g class="cl"><path class="bf" d="M114.048 155.86c-1.035.128-.8 1.207-.936 2.002s-.04 2.078 1.415 1.9 1.239-1.45.914-2.186-.357-1.843-1.393-1.715z"/><path class="bg" d="M113.521 156.558c-.06.007-.062.085.01.076s.031-.081-.01-.076zM113.783 156.283c-.062.008-.062.085.01.077s.03-.082-.01-.077zM114.009 155.955c-.061.008-.063.085.009.077s.031-.082-.01-.077zM113.71 156.861c-.06.008-.061.085.01.077s.031-.082-.01-.077zM114.041 156.598c-.06.007-.062.085.01.076s.03-.081-.01-.076zM114.208 156.27c-.06.007-.062.084.01.076s.031-.082-.01-.077zM114.468 156.507c-.06.008-.062.085.01.077s.03-.082-.01-.077zM113.435 157.055c-.06.008-.062.085.01.077s.031-.082-.01-.077zM114.38 156.901c-.061.007-.063.085.009.076s.031-.081-.01-.076zM114.933 157.188c-.062.007-.062.085.009.076s.031-.081-.01-.076zM113.673 157.404c-.061.007-.062.085.009.076s.031-.081-.01-.076zM113.625 157.776c-.062.008-.062.086.009.077s.031-.082-.01-.077zM113.955 158.072c-.06.008-.062.086.01.077s.03-.082-.01-.077zM113.69 158.698c-.061.008-.062.086.01.077s.031-.082-.01-.077zM114.024 157.222c-.06.007-.062.085.01.076s.03-.081-.01-.076zM114.182 157.746c-.06.008-.062.086.01.077s.03-.082-.01-.077zM114.57 158.063c-.06.008-.062.086.009.077s.031-.082-.01-.077zM115.02 158.664c-.061.008-.063.085.009.077s.03-.082-.01-.077zM114.44 157.387c-.061.008-.063.086.009.077s.031-.082-.01-.077zM114.276 158.51c-.06.008-.062.086.01.077s.03-.081-.01-.076zM114.658 159.168c-.06.007-.062.085.01.076s.03-.081-.01-.076zM114.168 159.037c-.061.007-.062.085.01.076s.031-.081-.01-.076zM114.392 159.454c-.06.008-.062.086.01.077s.03-.082-.01-.077zM114.952 157.73c-.06.007-.062.085.01.076s.03-.082-.01-.077zM115.3 158.051c-.06.008-.062.086.009.077s.031-.082-.01-.077zM113.348 157.584c-.06.007-.062.085.01.076s.03-.081-.01-.076zM113.337 158.253c-.062.008-.062.085.009.077s.031-.082-.01-.077zM113.504 159.232c-.06.007-.062.085.01.076s.03-.081-.01-.076z"/></g><g class="cl" transform="rotate(-8 1175.579 -772.71)"><path class="an" d="M.634.23h1.925v.82H.634z"/><path class="ao" d="M.47 0h2.253v.693H.47z"/><rect class="an" width="3.194" height="3.194" rx="1" transform="translate(0 1.05)"/></g><g class="cl"><path class="ay" d="M109.662 163.729a1.258 1.258 0 111.257-1.258 1.258 1.258 0 01-1.257 1.258z"/><path class="ay" d="M110.919 162.472h-2.516a1.258 1.258 0 102.516 0z"/></g><g class="cl"><path class="al" d="M114.177 161.494l2.925-.31.24 2.266-2.926.31z"/><path class="as" d="M114.307 160.992l2.563-.27.051.482-2.563.27z"/><path class="at" d="M114.597 163.74l2.563-.271.05.481-2.562.27z"/></g><g transform="translate(35.894 102.352)"><circle class="cm" cx="22.779" cy="22.779" r="22.779"/><path class="bj" d="M35.232 22.102H17.974a.83.83 0 010-1.66h17.261a.83.83 0 010 1.66z"/><path class="bj" d="M23.378 33.241c-.458 0-.83-.611-.83-1.366V17.126c0-.754.372-1.366.83-1.366s.83.611.83 1.366v14.749c0 .755-.372 1.366-.83 1.366zM29.685 33.241c-.458 0-.83-.611-.83-1.366V17.126c0-.754.372-1.366.83-1.366s.83.611.83 1.366v14.749c0 .755-.372 1.366-.83 1.366z"/><path class="bj" d="M34.703 27.911H18.065a.835.835 0 110-1.66h16.638a.835.835 0 110 1.66z"/><path class="bj" d="M35.626 33.749H17.434a1.072 1.072 0 01-1.072-1.072V16.25a1.072 1.072 0 011.072-1.072h18.192a1.072 1.072 0 011.072 1.072v16.427a1.072 1.072 0 01-1.072 1.072zm-17.122-2.144h16.05V17.322H18.506z"/><path class="bj" d="M17.435 33.749H9.654a1.072 1.072 0 01-1.067-1.174l2.1-21.923a1.072 1.072 0 011.067-.97h3.759a1.072 1.072 0 011.068.979l1.917 21.923a1.072 1.072 0 01-1.068 1.166zm-6.6-2.144h5.432l-1.73-19.779h-1.8z"/></g><g transform="translate(131.425 37.364)"><circle class="cm" cx="26.29" cy="26.29" r="26.29"/><path class="bj" d="M25.017 20.685h8.53a1.167 1.167 0 001.166-1.166v-5.334a1.167 1.167 0 00-1.166-1.166h-8.53a1.167 1.167 0 00-1.166 1.166v5.338a1.167 1.167 0 001.166 1.162zm.578-1.744v-4.178h7.374v4.178zM47.289 24.66a1.914 1.914 0 00-1.666-.98H40.94v-1.183a1.167 1.167 0 00-1.166-1.166h-8.53a1.167 1.167 0 00-1.166 1.166v4.942l-.695.005v-4.947a1.167 1.167 0 00-1.166-1.166h-8.53a1.167 1.167 0 00-1.166 1.166v5.027l-10.114.079a1.832 1.832 0 00-1.494 2.866l4.136 6.019a4.144 4.144 0 003.412 1.8h23.7a3.47 3.47 0 002.956-1.641l6.126-10.03a1.921 1.921 0 00.046-1.957zm-15.467 2.766v-4.348h7.374v.605h-2.3a3.229 3.229 0 00-2.659 1.4l-1.613 2.339zm-11.557-4.351h7.374v4.382l-7.209.052h-.166zm25.5 2.623l-6.124 10.027a1.73 1.73 0 01-1.474.815h-23.7a2.4 2.4 0 01-1.975-1.04L8.36 29.487a.084.084 0 01-.005-.1.073.073 0 01.073-.045l12.024-.094 9.119-.065 1.394-.012 2.135-.018a.872.872 0 00.71-.377l1.871-2.713a1.486 1.486 0 011.223-.646h8.72a.162.162 0 01.15.089.169.169 0 01-.014.192z"/></g><g transform="translate(237.272)"><circle class="cm" cx="26.421" cy="26.421" r="26.421" transform="rotate(-45 45.104 18.683)"/><path class="bj" d="M43.05 45.186H27.663a.9.9 0 01-.879-.7 1.577 1.577 0 00-.123-.344.608.608 0 01-.017-.037 2.444 2.444 0 00-.222-.4 2.786 2.786 0 00-2.308-1.232 2.824 2.824 0 00-2.319 1.233 2.436 2.436 0 00-.221.4l-.018.038a1.546 1.546 0 00-.123.343.9.9 0 01-.879.7h-.768a1.445 1.445 0 01-1.444-1.444V30.087a1.445 1.445 0 011.444-1.444h23.265a1.445 1.445 0 011.444 1.444v13.656a1.445 1.445 0 01-1.445 1.443zm-14.754-1.805h14.389V30.448H20.143v12.494c.051-.085.1-.169.161-.252a4.593 4.593 0 017.6.005 4.223 4.223 0 01.372.662zM54.394 45.186h-.66a.9.9 0 01-.878-.7 1.57 1.57 0 00-.124-.344.608.608 0 01-.017-.037 2.392 2.392 0 00-.222-.4 2.8 2.8 0 00-4.638 0 2.416 2.416 0 00-.222.4l-.017.037a1.54 1.54 0 00-.124.343.9.9 0 01-.879.7h-.205a1.445 1.445 0 01-1.444-1.444v-10.68a1.445 1.445 0 011.444-1.444h2.327a6.831 6.831 0 017.1 7.586v4.538a1.445 1.445 0 01-1.441 1.445zm-4.22-4.51a4.627 4.627 0 013.806 2.014l.053.079v-3.614a.992.992 0 01.006-.108 5.026 5.026 0 00-5.238-5.624H46.77v8.761a4.616 4.616 0 013.403-1.511z"/><path class="bj" d="M24.113 48.8a2.442 2.442 0 01-2.439-2.439 2.406 2.406 0 01.591-1.577 2.4 2.4 0 013.685 0 2.409 2.409 0 01.591 1.577 2.437 2.437 0 01-2.428 2.439zm0-3.073a.563.563 0 00-.455.2l-.025.03a.6.6 0 00-.154.4.629.629 0 101.257 0 .6.6 0 00-.154-.4l-.025-.03a.558.558 0 00-.444-.2zM50.173 48.8a2.442 2.442 0 01-2.439-2.439 2.406 2.406 0 01.591-1.577 2.412 2.412 0 013.7 0 2.409 2.409 0 01.591 1.577 2.442 2.442 0 01-2.443 2.439zm0-3.073a.579.579 0 00-.456.2l-.025.03a.6.6 0 00-.154.4.634.634 0 001.268 0 .6.6 0 00-.154-.4l-.025-.03a.577.577 0 00-.454-.2z"/></g><g transform="translate(318.688 100.121)"><circle class="cm" cx="23.877" cy="23.877" r="23.877" transform="rotate(-45 40.76 16.884)"/><path class="bj" d="M33.92 47.287q-.34 0-.681-.015c-7.783-.343-13.856-6.54-13.538-13.813a12.694 12.694 0 014.568-9.169 14.562 14.562 0 0110.124-3.4c7.782.343 13.855 6.54 13.538 13.813a12.7 12.7 0 01-4.568 9.168 14.5 14.5 0 01-9.443 3.416zm-.207-24.552a12.644 12.644 0 00-8.237 2.972 10.853 10.853 0 00-3.914 7.833c-.273 6.249 5 11.575 11.759 11.873a12.712 12.712 0 008.836-2.96 10.85 10.85 0 003.914-7.833c.273-6.248-5-11.575-11.759-11.872q-.3-.014-.598-.014z"/><path class="bj" d="M37.189 34.138a37.29 37.29 0 01-.531 6.468c-.1.533-.208 1.064-.341 1.589a15.432 15.432 0 01-.475 1.555 7.374 7.374 0 01-.71 1.466 2.917 2.917 0 01-.532.624 1.527 1.527 0 01-.349.225 1.047 1.047 0 01-.407.1 1.022 1.022 0 01-.411-.076 1.408 1.408 0 01-.357-.213 2.756 2.756 0 01-.544-.614 7.128 7.128 0 01-.72-1.461 15.112 15.112 0 01-.481-1.554 23.248 23.248 0 01-.343-1.588c-.194-1.066-.325-2.142-.415-3.222s-.133-2.162-.138-3.245a46.252 46.252 0 01.121-3.246c.08-1.08.2-2.157.376-3.226.089-.534.192-1.066.317-1.593a15.318 15.318 0 01.451-1.561c.09-.255.189-.508.3-.755a5.548 5.548 0 01.387-.717 2.667 2.667 0 01.532-.618 1.357 1.357 0 01.352-.212.989.989 0 01.4-.072 1.066 1.066 0 01.4.094 1.555 1.555 0 01.347.218 2.954 2.954 0 01.544.607 7.315 7.315 0 01.746 1.443 14.833 14.833 0 01.511 1.542c.144.522.266 1.05.372 1.582a34.087 34.087 0 01.598 6.46zm-.16 0c0-1.079-.039-2.158-.128-3.233a31.265 31.265 0 00-.42-3.207c-.1-.53-.215-1.057-.352-1.578a14.715 14.715 0 00-.491-1.539 7.253 7.253 0 00-.722-1.437 2.9 2.9 0 00-.526-.6 1.507 1.507 0 00-.333-.214.984.984 0 00-.38-.093.93.93 0 00-.384.073 1.3 1.3 0 00-.336.207 2.618 2.618 0 00-.514.61 5.5 5.5 0 00-.374.711c-.109.245-.2.5-.292.752a15.318 15.318 0 00-.431 1.557 25.994 25.994 0 00-.3 1.589c-.165 1.066-.272 2.141-.339 3.217s-.092 2.156-.09 3.235.033 2.157.113 3.233.2 2.148.388 3.211c.093.531.2 1.059.33 1.582a14.977 14.977 0 00.465 1.545 7.086 7.086 0 00.7 1.445 2.694 2.694 0 00.521.6 1.34 1.34 0 00.333.2.917.917 0 00.377.072.958.958 0 00.373-.092 1.424 1.424 0 00.326-.215 2.851 2.851 0 00.51-.608 7.293 7.293 0 00.688-1.45 15.319 15.319 0 00.459-1.547 23.62 23.62 0 00.326-1.583c.183-1.062.3-2.135.386-3.211s.117-2.153.117-3.232z"/><path class="bj" d="M33.813 46.479a1.345 1.345 0 01-.5-.1 1.722 1.722 0 01-.435-.259 3.037 3.037 0 01-.608-.683 7.408 7.408 0 01-.755-1.526 15.369 15.369 0 01-.491-1.587 23.155 23.155 0 01-.349-1.61 32.982 32.982 0 01-.418-3.252 43 43 0 01-.14-3.27 47.345 47.345 0 01.121-3.27c.087-1.173.21-2.237.38-3.254.1-.58.2-1.108.321-1.615a15.641 15.641 0 01.46-1.593c.1-.289.205-.545.313-.781a5.791 5.791 0 01.409-.757 2.934 2.934 0 01.6-.69 1.675 1.675 0 01.435-.26 1.314 1.314 0 01.532-.094 1.37 1.37 0 01.514.12 1.851 1.851 0 01.418.261 3.213 3.213 0 01.6.671 7.5 7.5 0 01.78 1.507 15.077 15.077 0 01.523 1.576c.14.508.263 1.032.377 1.6a34.084 34.084 0 01.6 6.522 37.224 37.224 0 01-.536 6.523c-.1.577-.217 1.1-.345 1.611a15.516 15.516 0 01-.486 1.587 7.613 7.613 0 01-.742 1.529 3.18 3.18 0 01-.592.691 1.828 1.828 0 01-.421.272 1.347 1.347 0 01-.532.124zm-.164-23.925a.624.624 0 00-.238.049 1.01 1.01 0 00-.256.159 2.288 2.288 0 00-.449.536 5.13 5.13 0 00-.352.67c-.1.218-.189.455-.281.726a14.976 14.976 0 00-.421 1.524 22.626 22.626 0 00-.294 1.568c-.155 1-.265 2.04-.336 3.188a48.78 48.78 0 00-.089 3.214c0 1.091.034 2.17.112 3.211.084 1.141.21 2.182.384 3.18.1.558.2 1.069.325 1.56a14.566 14.566 0 00.454 1.512 6.727 6.727 0 00.666 1.38 2.329 2.329 0 00.457.526 1.022 1.022 0 00.252.155.666.666 0 00.249.049.639.639 0 00.252-.063 1.129 1.129 0 00.254-.168 2.5 2.5 0 00.451-.54 6.929 6.929 0 00.655-1.386 14.951 14.951 0 00.449-1.514c.12-.489.225-1 .322-1.561.17-.989.3-2.03.382-3.181a42.46 42.46 0 00.119-3.21c0-1.088-.041-2.167-.127-3.206a30.6 30.6 0 00-.416-3.174c-.1-.553-.217-1.062-.347-1.555a14.345 14.345 0 00-.481-1.505 6.882 6.882 0 00-.689-1.374 2.552 2.552 0 00-.467-.535 1.194 1.194 0 00-.263-.17.666.666 0 00-.258-.065z"/><path class="bj" d="M42.628 34.139a15.852 15.852 0 01-.558 4.133 13.326 13.326 0 01-1.722 3.79 10.957 10.957 0 01-1.316 1.618 9.238 9.238 0 01-1.619 1.309 7.781 7.781 0 01-1.89.867 7.04 7.04 0 01-4.109 0 7.789 7.789 0 01-1.891-.866 9.249 9.249 0 01-1.622-1.308 10.953 10.953 0 01-1.318-1.617 13.356 13.356 0 01-1.727-3.792 15.064 15.064 0 01-.418-2.049 15.516 15.516 0 010-4.174 15.007 15.007 0 01.42-2.048 13.324 13.324 0 011.729-3.789 10.958 10.958 0 011.318-1.615 9.252 9.252 0 011.622-1.306 7.833 7.833 0 011.89-.863 7 7 0 014.1 0 7.821 7.821 0 011.888.864 9.212 9.212 0 011.619 1.307 10.859 10.859 0 011.315 1.615 13.329 13.329 0 011.725 3.787 15.865 15.865 0 01.564 4.137zm-.183 0a15.649 15.649 0 00-.535-4.088 13.276 13.276 0 00-1.668-3.764 10.79 10.79 0 00-1.286-1.612 8.98 8.98 0 00-1.591-1.309A7.672 7.672 0 0035.5 22.5a6.817 6.817 0 00-4.062 0 7.66 7.66 0 00-1.864.867 9.034 9.034 0 00-1.588 1.31 10.874 10.874 0 00-1.283 1.613 13.259 13.259 0 00-1.663 3.763 15.227 15.227 0 00-.4 2.025 15.855 15.855 0 000 4.12 15.219 15.219 0 00.4 2.024 13.257 13.257 0 001.666 3.76 10.809 10.809 0 001.283 1.611 8.967 8.967 0 001.588 1.308 7.692 7.692 0 001.863.864 6.772 6.772 0 004.055 0 7.7 7.7 0 001.864-.863 8.961 8.961 0 001.59-1.307 10.776 10.776 0 001.286-1.611 13.263 13.263 0 001.67-3.762 15.659 15.659 0 00.537-4.083z"/><path class="bj" d="M33.47 46.479a7.417 7.417 0 01-2.146-.319 8.09 8.09 0 01-1.967-.9 9.54 9.54 0 01-1.678-1.352 11.259 11.259 0 01-1.356-1.664 13.637 13.637 0 01-1.769-3.881 15.389 15.389 0 01-.427-2.094 15.774 15.774 0 010-4.257 15.374 15.374 0 01.428-2.092 13.627 13.627 0 011.771-3.88 11.249 11.249 0 011.357-1.662 9.547 9.547 0 011.677-1.35 8.129 8.129 0 011.966-.9 7.306 7.306 0 014.284 0 8.127 8.127 0 011.964.9 9.539 9.539 0 011.675 1.351 11.229 11.229 0 011.354 1.662 13.6 13.6 0 011.766 3.877 16.136 16.136 0 01.573 4.217 16.121 16.121 0 01-.569 4.216 13.613 13.613 0 01-1.764 3.881 11.252 11.252 0 01-1.354 1.664 9.573 9.573 0 01-1.675 1.353 8.1 8.1 0 01-1.967.9 7.441 7.441 0 01-2.143.33zm0-23.973a6.7 6.7 0 00-1.938.3 7.38 7.38 0 00-1.788.832 8.713 8.713 0 00-1.532 1.264 10.509 10.509 0 00-1.245 1.566 12.9 12.9 0 00-1.623 3.673 14.924 14.924 0 00-.391 1.982 15.473 15.473 0 000 4.039 14.952 14.952 0 00.393 1.982 12.921 12.921 0 001.625 3.67 10.449 10.449 0 001.246 1.564 8.671 8.671 0 001.532 1.262 7.393 7.393 0 001.786.828 6.455 6.455 0 003.872 0 7.4 7.4 0 001.788-.828 8.654 8.654 0 001.533-1.261 10.506 10.506 0 001.249-1.563 12.963 12.963 0 001.63-3.672 15.531 15.531 0 000-8.009 12.947 12.947 0 00-1.628-3.674 10.5 10.5 0 00-1.248-1.565 8.707 8.707 0 00-1.534-1.263 7.34 7.34 0 00-1.788-.83 6.7 6.7 0 00-1.94-.297z"/><path class="bj" d="M22.781 29.381l2.75-.022 2.751-.013 5.5-.01 5.5.011 2.75.014 2.751.024a.008.008 0 01.008.008s0 .008-.008.008l-2.751.024-2.75.014-5.5.011-5.5-.01-2.751-.013-2.75-.022a.019.019 0 01-.012-.005c0-.013.006-.019.012-.019z"/><path class="bj" d="M33.784 29.766l-8.254-.023-2.883-.024-.192-.193v-.141l.007-.308.316-.012 5.5-.035 5.5-.01 8.254.025 3.063.027.008.636-.322.008-5.5.038zM25.972 24.756c.651-.01 1.3-.015 1.953-.022l1.953-.013c.651-.005 1.3 0 1.954-.007h1.952l3.906.011 1.953.014c.651.008 1.3.013 1.953.024a.012.012 0 01.008 0c0 .009 0 .012-.008.012-.651.011-1.3.016-1.953.024l-1.953.014-3.906.011h-1.952c-.652 0-1.3 0-1.954-.006l-1.953-.013c-.651-.008-1.3-.012-1.953-.022a.012.012 0 01-.012-.012.012.012 0 01.012-.015z"/><path class="bj" d="M33.782 25.14h-2.46c-.483 0-.966 0-1.449-.005l-2.6-.02c-.435 0-.87-.008-1.3-.015h-.309l-.012-.638.321-.012c.421-.007.841-.011 1.262-.015l2.647-.02q.687-.005 1.376-.005l2.531-.005 6.572.033c.415 0 .831.009 1.245.016l.32.005-.014.634-.311.008c-.429.008-.865.012-1.3.017l-2.605.021z"/><g><path class="bj" d="M21.826 34.005l2.99-.022 2.99-.013 5.979-.01 5.979.011 2.99.014 2.99.024a.008.008 0 01.008.008s0 .008-.008.008l-2.99.024-2.99.014-5.979.011-5.979-.01-2.99-.013-2.99-.022a.012.012 0 110-.024z"/><path class="bj" d="M33.784 34.39l-8.971-.023-3.3-.025-.012-.641.324-.012 5.98-.035 5.98-.01 8.971.025 3.122.025.19.194-.012.445-.312.008-5.978.038z"/></g><g><path class="bj" d="M22.781 38.63l2.75-.022 2.751-.013 5.5-.01 5.5.011 2.75.014 2.751.024a.012.012 0 01.008 0c0 .009 0 .012-.008.012l-2.751.024-2.75.014-5.5.011-5.5-.01-2.751-.013-2.75-.022a.012.012 0 01-.012-.012.012.012 0 01.012-.008z"/><path class="bj" d="M33.784 39.015l-8.254-.023-2.883-.023-.192-.193v-.141l.007-.308.316-.011 5.5-.035 5.5-.01 8.254.025 3.063.027.008.636-.322.008-5.5.038z"/></g><g><path class="bj" d="M41.988 43.31H26.369a.043.043 0 010-.085h15.623a.043.043 0 110 .085z"/><path class="bj" d="M41.988 43.625H26.365a.358.358 0 010-.715h15.623a.358.358 0 010 .715z"/></g></g></svg>